<svg xmlns="http://www.w3.org/2000/svg" width="73.562" height="73.546" viewBox="0 0 73.562 73.546">
  <g id="worldwide" transform="translate(0 -0.05)">
    <g id="Group_99" data-name="Group 99" transform="translate(0 0.05)">
      <path id="Path_141" data-name="Path 141" d="M36.794.05a36.773,36.773,0,0,0-33.81,22.3l-.458.152.178.533A36.77,36.77,0,1,0,36.794.05ZM65.638,55.363,63.75,53.476v-4.4a1.224,1.224,0,0,0-.123-.548l-4.781-9.548V34.372a1.226,1.226,0,0,0-.545-1.02L54.624,30.9a1.226,1.226,0,0,0-.981-.169l-4.5,1.125L41.576,28.61,40.535,21.32l2.884-2.883h6.191l2.084,3.132a1.226,1.226,0,0,0,.819.528l7.355,1.226a1.215,1.215,0,0,0,.588-.047l6.774-2.258A34.2,34.2,0,0,1,65.638,55.363ZM60.582,12.129l-1.993,1.329-5.556-1.112-3.6-1.2a1.2,1.2,0,0,0-.684-.027l-4.557,1.139-2-.666L43.669,8.63h4.146a1.225,1.225,0,0,0,.548-.129L52.6,6.381A34.447,34.447,0,0,1,60.582,12.129ZM23.357,5.239,26.3,7.2a1.224,1.224,0,0,0,.479.189l5.94.99-.58,1.734-3.1,1.033a1.226,1.226,0,0,0-.663.531l-3.52,5.867-5.654,3.393-8.335,1.19A1.226,1.226,0,0,0,9.816,23.34v3.677a1.226,1.226,0,0,0,.359.867l2.092,2.092v2.106l-5.1-3.4-1.85-5.549A34.519,34.519,0,0,1,23.357,5.239Zm-3.49,40.189-5.54-1.109-2.059-4.108V37.331l4.567-4.567,1.69,3.382a1.226,1.226,0,0,0,1.1.678h7.887l3.321,5.534a1.226,1.226,0,0,0,1.05.594h3.408l-.858,4.3-4.641,4.641a1.226,1.226,0,0,0-.36.867v3.064l-4.413,3.31a1.226,1.226,0,0,0-.49.981V64.54L23,64.035l-2.152-5.384V46.629A1.226,1.226,0,0,0,19.867,45.428ZM16.183,64.271A34.313,34.313,0,0,1,3.958,26.8l1.019,3.055a1.225,1.225,0,0,0,.482.632l6.11,4.073-1.394,1.395a1.226,1.226,0,0,0-.359.867V40.5a1.225,1.225,0,0,0,.129.548l2.452,4.9a1.226,1.226,0,0,0,.858.653L18.4,47.633V58.887a1.226,1.226,0,0,0,.087.455l2.452,6.129a1.226,1.226,0,0,0,.751.707L25.37,67.4a1.2,1.2,0,0,0,.381.064,1.226,1.226,0,0,0,1.226-1.226V60.726l4.413-3.31a1.226,1.226,0,0,0,.49-.981v-3.17l4.544-4.544a1.227,1.227,0,0,0,.335-.626l1.226-6.129a1.226,1.226,0,0,0-1.2-1.466H32.574l-3.321-5.534a1.226,1.226,0,0,0-1.05-.595H20.38l-2.106-4.225a1.226,1.226,0,0,0-.9-.662,1.2,1.2,0,0,0-1.063.343l-1.591,1.585V29.468a1.226,1.226,0,0,0-.359-.867l-2.092-2.092V24.4L19.8,23.327a1.232,1.232,0,0,0,.457-.163l6.129-3.677a1.225,1.225,0,0,0,.419-.419l3.444-5.74,3.247-1.084a1.213,1.213,0,0,0,.775-.775l1.226-3.677A1.226,1.226,0,0,0,34.532,6.2L27.438,5.016l-1.247-.831a34.227,34.227,0,0,1,23.574.876L47.526,6.179H42.912a1.226,1.226,0,0,0-1.1.678l-2.452,4.9a1.226,1.226,0,0,0,.71,1.71L43.744,14.7a1.2,1.2,0,0,0,.684.027l4.557-1.139L52.324,14.7a.9.9,0,0,0,.147.039L58.6,15.96a1.217,1.217,0,0,0,.921-.181l2.79-1.861A34.58,34.58,0,0,1,66,18.845l-6.031,2.01-6.53-1.088L51.28,16.53a1.226,1.226,0,0,0-1.014-.545H42.912a1.226,1.226,0,0,0-.867.359l-3.677,3.677a1.226,1.226,0,0,0-.347,1.041l1.226,8.58a1.226,1.226,0,0,0,.735.952l8.58,3.677a1.211,1.211,0,0,0,.78.063l4.377-1.095L56.4,35.027v4.247a1.224,1.224,0,0,0,.123.548L61.3,49.37v4.614a1.226,1.226,0,0,0,.359.867l2.564,2.566A34.313,34.313,0,0,1,16.183,64.271Z" transform="translate(0 -0.05)" fill="#f5fbff"/>
    </g>
  </g>
</svg>
