<svg id="group" xmlns="http://www.w3.org/2000/svg" width="76.058" height="76.058" viewBox="0 0 76.058 76.058">
  <path id="Path_142" data-name="Path 142" d="M76.058,39.256V29.413a6.1,6.1,0,0,0-4.371-5.875l-7.9-2.369V19.305a8.578,8.578,0,0,0,3.68-7.036V8.587a8.587,8.587,0,1,0-17.174,0v3.68a8.575,8.575,0,0,0,3.68,7.036v1.863l-6.959,2.088a14.177,14.177,0,0,0-18.7-.214l-6.239-1.872V19.305a8.578,8.578,0,0,0,3.68-7.036V8.587a8.587,8.587,0,0,0-17.174,0v3.68a8.575,8.575,0,0,0,3.68,7.036v1.863l-7.9,2.369A6.1,6.1,0,0,0,0,29.413v9.843H2.453V29.413a3.656,3.656,0,0,1,2.623-3.525l7.9-2.37a5.335,5.335,0,0,0,4.2,2.244,5.335,5.335,0,0,0,4.2-2.244L26.4,25.027a14.16,14.16,0,0,0-2.984,7.127A8.576,8.576,0,0,0,8.587,38.029v3.68a8.575,8.575,0,0,0,3.68,7.036v1.863l-7.9,2.369A6.1,6.1,0,0,0,0,58.855v11.07H14.721a1.229,1.229,0,0,1,1.227,1.227v4.907H60.111V71.151a1.229,1.229,0,0,1,1.227-1.227H76.058V58.855a6.1,6.1,0,0,0-4.371-5.875l-7.9-2.369V48.747a8.578,8.578,0,0,0,3.68-7.036V38.03a8.58,8.58,0,0,0-14.721-6V30.869a6.6,6.6,0,0,0-3.371-5.757l5.306-1.593a5.051,5.051,0,0,0,8.4,0l7.9,2.37A3.656,3.656,0,0,1,73.6,29.413v9.843ZM17.174,2.453a6.141,6.141,0,0,1,6.134,6.134H17.682a2.982,2.982,0,0,1-2.094-.867l-.867-.867-.867.867a2.982,2.982,0,0,1-2.094.867h-.719A6.141,6.141,0,0,1,17.174,2.453Zm-6.134,9.814V11.041h.719a5.372,5.372,0,0,0,2.961-.879,5.372,5.372,0,0,0,2.961.879h5.626v1.227a6.134,6.134,0,0,1-12.267,0Zm6.134,11.041a3.139,3.139,0,0,1-2.453-1.564v-1.25a8.514,8.514,0,0,0,4.907,0v1.25A3.134,3.134,0,0,1,17.174,23.308ZM50.9,44.84a8.625,8.625,0,0,0,3.082,3.907v1.863l-7.9,2.369a6.024,6.024,0,0,0-.76.289L44.163,53V50.585a9.865,9.865,0,0,0,2.979-4.023A6.109,6.109,0,0,0,50.9,44.84ZM38.029,52.75a9.746,9.746,0,0,0,3.68-.722v1.336l-3.68,2.76-3.68-2.76V52.028A9.746,9.746,0,0,0,38.029,52.75ZM32.842,55.3l2.991,2.244-3.076,1.846-.778-3.89Zm3.831,9.717h2.711l.954,8.587H35.719ZM39.6,62.564H36.459l-.7-2.113,2.274-1.364L40.3,60.451Zm.627-5.02L43.216,55.3l.864.2-.778,3.89ZM49.34,42.958a3.679,3.679,0,0,1-1.55.991,9.949,9.949,0,0,0,.053-1.014v-5.87a3.7,3.7,0,0,1,2.435,3.05A3.659,3.659,0,0,1,49.34,42.958Zm-3.95-.022a7.36,7.36,0,1,1-14.721,0V36.8h4.165a15.777,15.777,0,0,0,7.6-1.942L43.4,36.8H45.39ZM28.268,43.95a3.627,3.627,0,0,1-.053-6.882v5.869A9.948,9.948,0,0,0,28.268,43.95Zm.649,2.612A9.844,9.844,0,0,0,31.9,50.585V53l-1.159.267a6.349,6.349,0,0,0-.758-.289l-7.9-2.369V48.747a8.632,8.632,0,0,0,3.082-3.907A6.109,6.109,0,0,0,28.917,46.561ZM17.174,31.9a6.141,6.141,0,0,1,6.134,6.134h-.719a2.982,2.982,0,0,1-2.094-.867l-.867-.867-.867.867a2.982,2.982,0,0,1-2.094.867H11.041A6.141,6.141,0,0,1,17.174,31.9Zm-6.134,9.814V40.483h5.626a5.372,5.372,0,0,0,2.961-.879,5.372,5.372,0,0,0,2.961.879h.719v1.227a6.134,6.134,0,0,1-12.267,0ZM17.174,50.3a8.536,8.536,0,0,0,2.453-.362v1.25a3.134,3.134,0,0,1-2.453,1.565,3.139,3.139,0,0,1-2.453-1.564v-1.25A8.577,8.577,0,0,0,17.174,50.3ZM14.721,67.471H9.814V58.884H7.36v8.587H2.453V58.855A3.656,3.656,0,0,1,5.077,55.33l7.9-2.37a5.335,5.335,0,0,0,4.2,2.244,5.335,5.335,0,0,0,4.2-2.244l4.652,1.4-3.421.789a8.549,8.549,0,0,0-6.656,8.367v1.505H18.4V63.512a6.107,6.107,0,0,1,4.755-5.977l6.431-1.484,1.446,7.233L33.6,61.745l.726,2.179L33.251,73.6H26.988V63.791H24.535V73.6H18.4V71.151A3.685,3.685,0,0,0,14.721,67.471ZM70.982,55.33A3.656,3.656,0,0,1,73.6,58.855v8.617H68.7V58.884H66.244v8.587H61.337a3.685,3.685,0,0,0-3.68,3.68V73.6H51.523V63.791H49.07V73.6H42.807l-1.076-9.682.726-2.179,2.567,1.539,1.446-7.233L52.9,57.536a6.107,6.107,0,0,1,4.755,5.977v1.505h2.453V63.512a8.549,8.549,0,0,0-6.656-8.367l-3.421-.789,4.652-1.4a5.051,5.051,0,0,0,8.4,0Zm-9.644-4.144a2.706,2.706,0,0,1-4.907,0V49.935a8.5,8.5,0,0,0,4.907,0Zm-2.453-3.343a6.141,6.141,0,0,1-6.134-6.134V40.483h.719A5.372,5.372,0,0,0,56.43,39.6a5.372,5.372,0,0,0,2.961.879h5.626v1.227A6.141,6.141,0,0,1,58.884,47.843Zm0-15.948a6.141,6.141,0,0,1,6.134,6.134H59.392a2.982,2.982,0,0,1-2.094-.867l-.867-.867-.867.867a2.982,2.982,0,0,1-2.094.867H52.75A6.141,6.141,0,0,1,58.884,31.9ZM50.3,35.68a6.445,6.445,0,0,0-3.891-1.331H44.921l-1.509-3.018-1.156.77a13.337,13.337,0,0,1-7.423,2.247H29.653a6.445,6.445,0,0,0-3.891,1.331V33.866a11.785,11.785,0,0,1,20.117-8.333l1.3,1.3.275.092A4.15,4.15,0,0,1,50.3,30.868ZM58.884,2.453a6.141,6.141,0,0,1,6.134,6.134H64.3A2.982,2.982,0,0,1,62.2,7.72l-.867-.867-.867.867a2.982,2.982,0,0,1-2.094.867H52.75A6.141,6.141,0,0,1,58.884,2.453ZM52.75,12.267V11.041h5.626a5.372,5.372,0,0,0,2.961-.879,5.372,5.372,0,0,0,2.961.879h.719v1.227a6.134,6.134,0,1,1-12.267,0Zm6.134,11.041a3.137,3.137,0,0,1-2.453-1.564V20.493a8.5,8.5,0,0,0,4.907,0v1.25A3.134,3.134,0,0,1,58.884,23.308Zm0,0" fill="#0760e8"/>
  <path id="Path_143" data-name="Path 143" d="M184,0h2.453V2.453H184Zm0,0" transform="translate(-155.785)" fill="#0760e8"/>
  <path id="Path_144" data-name="Path 144" d="M184,32h2.453V45.494H184Zm0,0" transform="translate(-155.785 -27.093)" fill="#0760e8"/>
  <path id="Path_145" data-name="Path 145" d="M296,0h2.453V2.453H296Zm0,0" transform="translate(-250.61)" fill="#0760e8"/>
  <path id="Path_146" data-name="Path 146" d="M296,32h2.453V45.494H296Zm0,0" transform="translate(-250.61 -27.093)" fill="#0760e8"/>
  <path id="Path_147" data-name="Path 147" d="M216,32h2.453v8.587H216Zm0,0" transform="translate(-182.878 -27.093)" fill="#0760e8"/>
  <path id="Path_148" data-name="Path 148" d="M216,104h2.453v2.453H216Zm0,0" transform="translate(-182.878 -88.052)" fill="#0760e8"/>
  <path id="Path_149" data-name="Path 149" d="M264,32h2.453v8.587H264Zm0,0" transform="translate(-223.517 -27.093)" fill="#0760e8"/>
  <path id="Path_150" data-name="Path 150" d="M264,104h2.453v2.453H264Zm0,0" transform="translate(-223.517 -88.052)" fill="#0760e8"/>
</svg>
