<svg id="calendar" xmlns="http://www.w3.org/2000/svg" width="77" height="74.433" viewBox="0 0 77 74.433">
  <path id="Path_128" data-name="Path 128" d="M229.817,192a21.817,21.817,0,1,0,21.817,21.817A21.817,21.817,0,0,0,229.817,192Zm0,41.067a19.25,19.25,0,1,1,19.25-19.25A19.25,19.25,0,0,1,229.817,233.067Zm0,0" transform="translate(-174.633 -161.2)" fill="#0760e8"/>
  <path id="Path_129" data-name="Path 129" d="M298.267,263.936V256H295.7v7.936a3.846,3.846,0,0,0-2.33,2.33H288v2.567h5.37a3.841,3.841,0,1,0,4.9-4.9Zm-1.283,4.9a1.283,1.283,0,1,1,1.283-1.283A1.283,1.283,0,0,1,296.983,268.833Zm0,0" transform="translate(-241.8 -214.933)" fill="#0760e8"/>
  <path id="Path_130" data-name="Path 130" d="M240,320h2.567v2.567H240Zm0,0" transform="translate(-201.5 -268.667)" fill="#0760e8"/>
  <path id="Path_131" data-name="Path 131" d="M336,416h2.567v2.567H336Zm0,0" transform="translate(-282.1 -349.267)" fill="#0760e8"/>
  <path id="Path_132" data-name="Path 132" d="M432,320h2.567v2.567H432Zm0,0" transform="translate(-362.7 -268.667)" fill="#0760e8"/>
  <path id="Path_133" data-name="Path 133" d="M336,224h2.567v2.567H336Zm0,0" transform="translate(-282.1 -188.067)" fill="#0760e8"/>
  <path id="Path_134" data-name="Path 134" d="M2.567,55.183V17.967H61.6v11.55h2.567V11.55A6.424,6.424,0,0,0,57.75,5.133H48.767V3.85a3.85,3.85,0,0,0-7.7,0V5.133H23.1V3.85a3.85,3.85,0,1,0-7.7,0V5.133H6.417A6.424,6.424,0,0,0,0,11.55V55.183A6.424,6.424,0,0,0,6.417,61.6H32.083V59.033H6.417A3.85,3.85,0,0,1,2.567,55.183ZM43.633,3.85a1.283,1.283,0,1,1,2.567,0V8.983a1.283,1.283,0,0,1-2.567,0Zm-25.667,0a1.283,1.283,0,1,1,2.567,0V8.983a1.283,1.283,0,1,1-2.567,0ZM6.417,7.7H15.4V8.983a3.85,3.85,0,1,0,7.7,0V7.7H41.067V8.983a3.85,3.85,0,0,0,7.7,0V7.7H57.75a3.85,3.85,0,0,1,3.85,3.85V15.4H2.567V11.55A3.85,3.85,0,0,1,6.417,7.7Zm0,0" fill="#0760e8"/>
  <path id="Path_135" data-name="Path 135" d="M58.267,162.567A2.567,2.567,0,0,0,55.7,160H50.567A2.567,2.567,0,0,0,48,162.567V167.7a2.567,2.567,0,0,0,2.567,2.567H55.7a2.567,2.567,0,0,0,2.567-2.567Zm-7.7,5.133v-5.133H55.7V167.7Zm0,0" transform="translate(-40.3 -134.333)" fill="#0760e8"/>
  <path id="Path_136" data-name="Path 136" d="M138.267,162.567A2.567,2.567,0,0,0,135.7,160h-5.133A2.567,2.567,0,0,0,128,162.567V167.7a2.567,2.567,0,0,0,2.567,2.567H135.7a2.567,2.567,0,0,0,2.567-2.567Zm-7.7,5.133v-5.133H135.7V167.7Zm0,0" transform="translate(-107.467 -134.333)" fill="#0760e8"/>
  <path id="Path_137" data-name="Path 137" d="M218.267,166.417v-3.85A2.567,2.567,0,0,0,215.7,160h-5.133A2.567,2.567,0,0,0,208,162.567V167.7a2.567,2.567,0,0,0,2.567,2.567h2.567V167.7h-2.567v-5.133H215.7v3.85Zm0,0" transform="translate(-174.633 -134.333)" fill="#0760e8"/>
  <path id="Path_138" data-name="Path 138" d="M55.7,256H50.567A2.567,2.567,0,0,0,48,258.567V263.7a2.567,2.567,0,0,0,2.567,2.567H55.7a2.567,2.567,0,0,0,2.567-2.567v-5.133A2.567,2.567,0,0,0,55.7,256Zm-5.133,7.7v-5.133H55.7V263.7Zm0,0" transform="translate(-40.3 -214.933)" fill="#0760e8"/>
  <path id="Path_139" data-name="Path 139" d="M135.7,256h-5.133A2.567,2.567,0,0,0,128,258.567V263.7a2.567,2.567,0,0,0,2.567,2.567H135.7a2.567,2.567,0,0,0,2.567-2.567v-5.133A2.567,2.567,0,0,0,135.7,256Zm-5.133,7.7v-5.133H135.7V263.7Zm0,0" transform="translate(-107.467 -214.933)" fill="#0760e8"/>
  <path id="Path_140" data-name="Path 140" d="M298.267,163.85v-1.283A2.567,2.567,0,0,0,295.7,160h-5.133A2.567,2.567,0,0,0,288,162.567v1.283h2.567v-1.283H295.7v1.283Zm0,0" transform="translate(-241.8 -134.333)" fill="#0760e8"/>
</svg>
