<svg xmlns="http://www.w3.org/2000/svg" width="60.689" height="49.671" viewBox="0 0 60.689 49.671">
  <path id="cap" d="M60.109,11.285,40.918,3.969a.9.9,0,1,0-.642,1.684l16.982,6.474L45.5,16.61,30.716,9.916a.9.9,0,0,0-.744,1.642l13.156,5.957L30.344,22.388,3.431,12.127,30.344,1.866,36.977,4.4a.9.9,0,1,0,.642-1.684L30.666.06a.9.9,0,0,0-.643,0L.58,11.285a.9.9,0,0,0-.58.842v4.116a.9.9,0,0,0,.58.842l9.194,3.505v3.124a.9.9,0,1,0,1.8,0V21.279l18.446,7.033a.9.9,0,0,0,.643,0l13.9-5.3V37.275a30.539,30.539,0,0,1-32.993-2.923V27.32a.9.9,0,1,0-1.8,0v7.469a.9.9,0,0,0,.338.7A32.336,32.336,0,0,0,44.57,39.3v3.648a3.425,3.425,0,1,0,1.8,0v-4.6a32.126,32.126,0,0,0,4.2-2.851.9.9,0,0,0,.338-.7V20.59l9.193-3.505a.9.9,0,0,0,.58-.842V12.127A.9.9,0,0,0,60.109,11.285ZM47.094,46.247a1.622,1.622,0,1,1-1.622-1.622A1.624,1.624,0,0,1,47.094,46.247ZM1.8,13.436l27.64,10.538v2.186L1.8,15.622ZM31.246,26.161V23.974l13.324-5.08v2.187Zm17.867,8.191a30.2,30.2,0,0,1-2.74,1.9V22.323l2.74-1.045Zm-2.74-13.959V18.207l12.514-4.771v2.186Zm0,0" transform="translate(0 0)" fill="#fff"/>
</svg>
