<svg id="china" xmlns="http://www.w3.org/2000/svg" width="36.143" height="74.868" viewBox="0 0 36.143 74.868">
  <path id="Path_503" data-name="Path 503" d="M152,16h7.745V43.107H152Zm0,0" transform="translate(-127.474 -13.418)" fill="#ecd3bf"/>
  <path id="Path_504" data-name="Path 504" d="M24,0H47.235V29.689H24Zm0,0" transform="translate(-20.128)" fill="#f4e5d9"/>
  <path id="Path_505" data-name="Path 505" d="M71.414,27.355,75.1,21.209l-2.212-1.33-2.766,4.61-2.766-4.61-2.212,1.33,3.688,6.147v.933H66.251V30.87h2.582v1.291H66.251v2.582h2.582v3.872h2.582V34.743H74V32.161H71.414V30.87H74V28.289H71.414Zm0,0" transform="translate(-54.633 -16.671)" fill="#edae00"/>
  <path id="Path_506" data-name="Path 506" d="M34.852,128H1.291L0,135.745V142.2H36.143v-6.454Zm0,0" transform="translate(0 -107.347)" fill="#ad2938"/>
  <path id="Path_507" data-name="Path 507" d="M0,176H36.143v46.47H0Zm0,0" transform="translate(0 -147.602)" fill="#e6364b"/>
  <path id="Path_508" data-name="Path 508" d="M44.908,240A12.908,12.908,0,1,1,32,252.908,12.908,12.908,0,0,1,44.908,240Zm0,0" transform="translate(-26.837 -201.275)" fill="#edae00"/>
  <path id="Path_509" data-name="Path 509" d="M64,279.748,71.741,272l7.744,7.744-7.744,7.745Zm0,0" transform="translate(-53.67 -228.115)" fill="#ecd3bf"/>
</svg>
