<svg xmlns="http://www.w3.org/2000/svg" width="74.015" height="74.013" viewBox="0 0 74.015 74.013">
  <g id="dollar" transform="translate(0.001 -0.007)">
    <g id="Group_246" data-name="Group 246" transform="translate(-0.001 0.007)">
      <g id="Group_245" data-name="Group 245" transform="translate(0 0)">
        <path id="Path_485" data-name="Path 485" d="M73.652,167.355a1.234,1.234,0,0,0-.872-.361H51.743a14.782,14.782,0,0,0-29.468,0H1.233A1.233,1.233,0,0,0,0,168.228a36.92,36.92,0,0,0,12.2,27.439c.017.018.024.043.042.059a36.995,36.995,0,0,0,8.714,5.845l.087.041q.724.347,1.463.662c.132.057.266.109.4.164.392.162.786.319,1.183.467.2.075.4.145.6.216.337.119.675.235,1.015.344.244.079.49.153.736.226q.456.136.915.261.41.111.823.212.433.106.869.2c.288.063.576.125.866.182s.584.107.877.157.576.1.867.141c.312.045.625.082.938.12.274.033.547.068.822.095.365.035.732.059,1.1.084.227.015.453.036.681.047.6.029,1.2.046,1.806.046s1.205-.017,1.806-.046c.228-.011.454-.032.681-.047.367-.025.734-.048,1.1-.084.276-.027.548-.062.822-.095.313-.037.626-.074.938-.12.291-.042.579-.092.867-.141s.585-.1.877-.157.578-.118.866-.182.58-.131.869-.2.55-.138.823-.212q.46-.124.915-.261c.246-.073.492-.148.736-.226.34-.109.678-.225,1.015-.344.2-.071.4-.141.6-.216.4-.148.791-.306,1.183-.467.133-.055.267-.107.4-.164q.738-.315,1.463-.662l.087-.041a36.993,36.993,0,0,0,8.714-5.845c.018-.017.025-.042.042-.059a36.921,36.921,0,0,0,12.2-27.439A1.233,1.233,0,0,0,73.652,167.355ZM12.958,193c-.049-.047-.095-.1-.143-.145-.507-.5-1-1.015-1.472-1.543-.109-.121-.22-.241-.327-.364q-.737-.842-1.42-1.73c-.089-.116-.174-.236-.262-.353q-.616-.825-1.186-1.686c-.062-.094-.127-.186-.188-.28-.408-.633-.792-1.283-1.16-1.943-.084-.151-.166-.3-.247-.455-.363-.677-.712-1.363-1.03-2.066-.016-.036-.03-.072-.046-.108-.3-.679-.582-1.372-.843-2.073-.059-.157-.119-.315-.175-.473-.256-.719-.491-1.449-.7-2.189-.037-.132-.069-.267-.105-.4q-.275-1.021-.488-2.065c-.026-.125-.055-.249-.079-.375-.147-.766-.265-1.543-.36-2.326-.021-.172-.039-.345-.057-.518-.086-.807-.154-1.619-.183-2.442H13.582c0,.083.008.165.011.248q.058,2.316.293,4.554c.022.206.046.41.07.615q.1.853.221,1.691c.028.192.054.385.084.576.114.722.238,1.438.378,2.143.015.076.033.15.048.226q.192.942.415,1.861c.049.2.1.4.151.6q.2.785.421,1.551c.048.167.094.336.144.5q.3.982.624,1.933c.042.121.088.238.131.359q.276.775.575,1.526.112.281.227.558.295.713.61,1.4c.049.108.094.22.144.327a39.649,39.649,0,0,0-4.931,3.076C13.12,193.138,13.036,193.071,12.958,193Zm12.762,7.862c-.384-.133-.761-.281-1.138-.427-.48-.185-.958-.377-1.429-.584-.414-.182-.822-.373-1.227-.571s-.819-.411-1.224-.628c-.434-.234-.865-.471-1.288-.722-.349-.207-.691-.428-1.033-.648-.444-.286-.889-.57-1.319-.875l-.019-.013c-.277-.2-.544-.41-.816-.616-.391-.3-.783-.591-1.162-.9a37.287,37.287,0,0,1,4.187-2.525q.33.6.676,1.187.144.243.291.482.393.638.805,1.246c.061.09.119.183.18.271q.5.723,1.029,1.4c.094.121.191.236.286.355q.407.507.829.987c.112.128.224.255.338.38.336.368.678.724,1.026,1.065.042.041.082.086.125.126.389.374.786.727,1.189,1.065.026.022.05.047.076.068C25.976,200.936,25.847,200.9,25.72,200.859ZM35.773,202.7c-.065-.006-.13-.017-.2-.024-.23-.026-.461-.049-.69-.087-.14-.023-.277-.058-.416-.085-.207-.041-.415-.079-.621-.13-.147-.037-.293-.085-.439-.127-.195-.056-.39-.107-.583-.172-.149-.05-.3-.11-.443-.165-.187-.07-.376-.136-.561-.214-.149-.063-.3-.136-.444-.2-.18-.083-.362-.163-.54-.253-.149-.076-.3-.161-.444-.242-.174-.1-.349-.188-.521-.291-.147-.088-.291-.184-.436-.277-.17-.109-.34-.215-.508-.33-.144-.1-.286-.207-.428-.312-.164-.121-.329-.239-.492-.366-.142-.112-.282-.231-.422-.348-.159-.132-.319-.263-.476-.4-.137-.122-.272-.25-.408-.377-.156-.145-.312-.289-.465-.441-.133-.132-.264-.27-.4-.407-.151-.157-.3-.312-.449-.475-.13-.142-.256-.291-.384-.437-.146-.168-.291-.335-.434-.509-.125-.152-.248-.31-.371-.466-.14-.178-.28-.356-.417-.54-.122-.163-.241-.331-.36-.5-.133-.187-.267-.374-.4-.567-.117-.172-.231-.349-.345-.525-.129-.2-.257-.4-.382-.6-.111-.18-.219-.363-.327-.546-.124-.209-.247-.419-.367-.634-.064-.114-.126-.231-.189-.346a38.431,38.431,0,0,1,14.35-3.29V202.7Zm0-17.154a40.912,40.912,0,0,0-15.464,3.542q-.131-.283-.258-.571-.157-.354-.308-.714-.133-.317-.261-.64-.146-.366-.287-.737-.124-.328-.243-.662-.136-.377-.266-.76-.115-.339-.225-.682-.124-.387-.243-.78-.106-.35-.207-.705-.113-.4-.22-.8-.1-.359-.187-.722-.1-.407-.2-.819-.085-.369-.167-.742-.09-.415-.172-.836c-.05-.251-.1-.5-.145-.757-.052-.284-.1-.57-.148-.858-.042-.255-.084-.511-.123-.769-.044-.29-.084-.582-.123-.875-.035-.261-.069-.521-.1-.784-.035-.293-.066-.589-.1-.885-.027-.268-.055-.535-.078-.805-.026-.3-.048-.593-.069-.891-.02-.274-.039-.548-.055-.824-.017-.3-.029-.6-.041-.9-.012-.281-.023-.561-.031-.844,0-.09,0-.182,0-.273h6.2a14.722,14.722,0,0,0,2.922,7.653c.121.161.258.312.386.469.158.193.311.391.478.576.194.215.405.417.613.621.121.118.235.242.36.356.2.187.421.361.637.538.15.123.3.249.453.366.194.146.4.281.6.419s.4.274.614.4c.172.1.35.2.528.3.261.145.526.284.8.413.076.036.146.081.223.116s.152.056.228.089c.334.147.675.279,1.021.4.138.048.275.1.414.144.358.114.723.21,1.092.3.125.029.249.065.374.091.407.085.821.148,1.239.2.082.01.163.027.245.036.1.01.2.015.3.024v2.577Zm1.5-5c-.14,0-.281.008-.421.006-.276,0-.548-.02-.82-.041-.144-.011-.288-.02-.432-.037-.239-.027-.473-.068-.708-.108-.179-.032-.359-.06-.537-.1s-.367-.093-.549-.142c-.219-.059-.439-.118-.655-.19-.146-.048-.289-.105-.433-.159-.237-.088-.474-.179-.707-.282-.141-.063-.278-.133-.416-.2-.223-.109-.444-.221-.658-.341-.17-.1-.335-.2-.5-.3s-.331-.21-.491-.322c-.187-.131-.368-.269-.548-.41-.13-.1-.259-.2-.383-.31-.181-.154-.356-.316-.528-.48-.118-.113-.235-.226-.347-.343-.155-.16-.3-.326-.45-.495-.123-.143-.244-.286-.361-.434s-.227-.3-.336-.449c-.135-.189-.267-.38-.39-.575-.075-.117-.146-.236-.217-.356-.141-.241-.277-.485-.4-.734-.043-.084-.083-.17-.123-.256-.134-.284-.259-.573-.371-.866-.024-.064-.047-.128-.071-.192-.112-.31-.214-.623-.3-.941-.018-.065-.034-.131-.051-.2q-.12-.466-.2-.942c-.016-.093-.029-.188-.043-.282-.044-.289-.08-.58-.1-.872-.011-.138-.015-.277-.021-.416a12.324,12.324,0,1,1,24.632-.327c0,.164-.015.326-.025.488-.014.245-.028.49-.057.735-.018.151-.045.3-.069.448-.04.257-.08.513-.137.769-.028.129-.066.254-.1.382-.069.271-.141.542-.23.81-.039.117-.085.23-.127.345-.1.269-.2.537-.318.8-.062.138-.13.273-.2.408-.1.215-.212.427-.328.634-.1.184-.216.363-.329.542-.09.142-.179.285-.274.423-.157.227-.324.447-.5.662-.064.081-.127.163-.193.242-.2.241-.415.473-.634.7-.051.052-.1.106-.153.158-.226.223-.462.436-.705.641-.064.054-.127.109-.192.162-.224.182-.457.352-.693.518-.1.073-.209.147-.316.217-.2.129-.4.249-.6.368-.166.095-.332.189-.5.277s-.318.156-.479.231c-.224.1-.451.2-.683.293-.133.052-.268.1-.4.148-.247.087-.494.167-.744.237-.155.044-.312.083-.47.121-.221.053-.442.1-.664.142-.207.037-.415.069-.625.1-.176.023-.352.044-.528.06C37.8,180.532,37.538,180.544,37.275,180.549Zm.965,2.422c.2-.017.407-.044.609-.069.162-.021.322-.044.483-.07.258-.041.515-.083.768-.137l.027-.007a14.644,14.644,0,0,0,1.823-.523c.066-.024.134-.045.2-.069.26-.1.516-.2.769-.313.116-.051.23-.1.345-.157.229-.107.456-.215.678-.333.193-.1.381-.215.569-.325.211-.125.421-.252.626-.387.265-.174.525-.354.779-.545.091-.069.179-.141.269-.212q.387-.306.755-.638c.062-.056.124-.112.185-.169a14.664,14.664,0,0,0,2.417-2.934c.066-.105.128-.213.191-.319q.212-.359.407-.733c.078-.151.155-.3.229-.456.033-.069.07-.133.1-.2.044-.1.075-.2.117-.295.129-.3.251-.6.361-.909.056-.157.106-.313.156-.471q.142-.447.257-.905.064-.257.118-.514c.061-.29.112-.583.156-.879.028-.186.053-.372.073-.559.014-.127.039-.25.05-.377h6.2c0,.091,0,.182,0,.272-.007.282-.019.563-.031.844-.012.3-.025.6-.041.9-.016.276-.035.55-.055.824-.021.3-.043.6-.069.891-.024.27-.051.537-.078.805-.03.3-.061.591-.1.885-.031.263-.066.523-.1.784-.039.293-.079.585-.123.875-.039.258-.081.513-.123.769-.048.287-.1.573-.148.858q-.07.381-.145.757-.083.42-.172.836-.08.373-.167.742-.1.412-.2.819-.091.364-.187.723-.107.4-.22.8-.1.355-.207.705-.119.393-.243.78-.11.343-.225.682-.13.383-.266.76-.12.333-.243.662-.141.372-.287.737-.129.322-.261.64-.151.361-.308.714-.127.288-.258.571a40.912,40.912,0,0,0-15.464-3.542v-2.577ZM47.307,198.3c-.136.126-.27.255-.408.377-.157.139-.316.269-.476.4-.141.117-.28.236-.422.348-.162.127-.327.246-.492.367-.143.1-.284.212-.428.312-.168.116-.338.222-.508.33-.145.093-.289.19-.436.277-.172.1-.347.2-.521.291-.148.081-.295.167-.444.242-.178.091-.36.17-.54.253-.148.068-.295.141-.444.2-.185.078-.374.144-.561.214-.148.055-.294.115-.443.165-.193.064-.388.116-.583.172-.146.042-.292.09-.439.127-.206.051-.414.089-.621.13-.139.028-.276.062-.416.085-.228.038-.459.061-.69.087-.065.007-.13.018-.2.024v-14.69a38.431,38.431,0,0,1,14.35,3.29c-.063.115-.125.232-.189.346-.12.215-.243.425-.367.634-.108.183-.217.367-.327.546-.125.2-.254.4-.382.6-.114.176-.229.353-.345.525-.131.193-.264.38-.4.567-.119.167-.239.336-.36.5-.137.184-.277.362-.417.54-.123.157-.245.314-.371.466-.143.174-.289.341-.434.509-.127.147-.254.3-.384.437-.148.163-.3.318-.449.475-.131.137-.262.275-.4.407C47.619,198.007,47.463,198.151,47.307,198.3Zm10.479-2.521h0c-.272.206-.539.419-.816.616l-.019.013c-.43.305-.875.59-1.319.875-.342.22-.684.441-1.033.648-.423.251-.854.489-1.288.722-.4.217-.811.427-1.224.628s-.813.389-1.227.571c-.472.207-.949.4-1.429.584-.378.146-.754.294-1.138.427-.126.044-.256.077-.383.119.026-.022.051-.047.076-.068.4-.339.8-.691,1.189-1.065.042-.041.083-.085.125-.126.349-.34.69-.7,1.026-1.065.114-.125.226-.252.338-.38q.422-.479.829-.987c.1-.119.192-.234.286-.355q.526-.677,1.028-1.4c.062-.09.122-.185.183-.276q.411-.606.8-1.242.147-.239.291-.482.346-.582.676-1.187a37.268,37.268,0,0,1,4.187,2.525C58.569,195.185,58.177,195.48,57.786,195.775ZM71.342,171.9c-.018.173-.036.346-.057.518-.1.783-.213,1.56-.36,2.326-.024.126-.054.25-.079.375q-.213,1.045-.488,2.065c-.036.133-.068.267-.105.4-.209.74-.444,1.47-.7,2.189-.057.159-.116.316-.175.473-.261.7-.539,1.394-.843,2.073-.016.036-.03.073-.046.108-.318.7-.667,1.389-1.03,2.066-.082.152-.163.3-.247.455-.367.66-.751,1.31-1.16,1.943-.061.095-.127.186-.188.28q-.568.862-1.186,1.686c-.088.117-.173.237-.262.353q-.682.889-1.42,1.73c-.108.123-.218.243-.327.364-.476.529-.965,1.045-1.472,1.543-.048.048-.094.1-.143.145-.077.075-.161.142-.239.216a39.649,39.649,0,0,0-4.931-3.076c.05-.107.095-.219.144-.327q.315-.69.61-1.4.115-.278.227-.558.3-.751.575-1.526c.043-.12.089-.238.131-.359q.33-.95.624-1.933c.05-.166.1-.335.144-.5q.221-.766.421-1.551c.051-.2.1-.4.151-.6q.221-.915.413-1.853c.016-.079.035-.157.051-.236.14-.7.264-1.419.377-2.141.03-.191.056-.384.084-.576q.123-.839.221-1.691c.024-.2.048-.409.07-.615q.233-2.236.293-4.554c0-.083.009-.165.011-.248H71.525C71.5,170.283,71.428,171.1,71.342,171.9Z" transform="translate(0.001 -131.222)" fill="#fff"/>
        <path id="Path_486" data-name="Path 486" d="M61.889,83.845l2.829-2.828V95.309a1.234,1.234,0,1,0,2.467,0V81.017l2.829,2.829A1.234,1.234,0,0,0,71.758,82.1l-4.933-4.933a1.238,1.238,0,0,0-1.746,0L60.145,82.1a1.233,1.233,0,0,0,1.744,1.744Z" transform="translate(-51.148 -65.705)" fill="#fff"/>
        <path id="Path_487" data-name="Path 487" d="M369.088,83.846l2.829-2.828V95.31a1.234,1.234,0,1,0,2.467,0V81.018l2.829,2.829a1.233,1.233,0,1,0,1.744-1.744l-4.933-4.933a1.238,1.238,0,0,0-1.746,0L367.344,82.1a1.233,1.233,0,0,0,1.744,1.744Z" transform="translate(-313.938 -65.706)" fill="#fff"/>
        <path id="Path_488" data-name="Path 488" d="M215.487,7.045l2.829-2.828V18.509a1.234,1.234,0,1,0,2.467,0V4.217l2.828,2.829A1.233,1.233,0,1,0,225.355,5.3L220.422.368a1.238,1.238,0,0,0-1.746,0L213.743,5.3a1.233,1.233,0,0,0,1.744,1.744Z" transform="translate(-182.542 -0.007)" fill="#fff"/>
        <path id="Path_489" data-name="Path 489" d="M220.873,210.032a4.72,4.72,0,0,0-1.9-5.65l1.646-3.607a3,3,0,0,1,.6.788,1.78,1.78,0,0,1,.107,1.52,1.234,1.234,0,0,0,2.246,1.025,4.209,4.209,0,0,0-.151-3.658,5.62,5.62,0,0,0-1.744-1.992l.22-.483a1.234,1.234,0,1,0-2.245-1.024l-.22.482a4.364,4.364,0,0,0-3.615,7.922l-1.646,3.607a3,3,0,0,1-.6-.788,1.78,1.78,0,0,1-.107-1.52,1.234,1.234,0,0,0-2.246-1.025,4.209,4.209,0,0,0,.151,3.658,5.62,5.62,0,0,0,1.744,1.992l-.22.483a1.234,1.234,0,0,0,2.246,1.024l.216-.474a5.891,5.891,0,0,0,1.329.158A4.459,4.459,0,0,0,220.873,210.032Zm-4.7-9.3a2.126,2.126,0,0,1,2.208-.977l-1.5,3.284A2.123,2.123,0,0,1,216.169,200.73Zm2.459,8.278a2.123,2.123,0,0,1-2.207.977l1.5-3.284A2.12,2.12,0,0,1,218.627,209.008Z" transform="translate(-180.391 -167.864)" fill="#fff"/>
      </g>
    </g>
  </g>
</svg>
