<svg xmlns="http://www.w3.org/2000/svg" width="116.841" height="31.14" viewBox="0 0 116.841 31.14">
  <g id="Logo_Монтажная_область_1_копия_4_1" data-name="Logo_Монтажная область 1 копия 4 1" transform="translate(-2.081 -1.667)">
    <path id="Path_306" data-name="Path 306" d="M14.425,24.3h-5.5A1.534,1.534,0,0,1,7.382,22.9a1.591,1.591,0,0,1,1.4-1.687c.187-.047.42,0,.606-.047h8.956a12.213,12.213,0,0,0,4.291-.609c2.425-.843,4.291-2.343,4.758-5.013a13.011,13.011,0,0,0-.047-5.2c-.513-2.3-2.146-3.561-4.245-4.31a11.548,11.548,0,0,0-3.312-.656,52.12,52.12,0,0,0-7.65.094,7.4,7.4,0,0,0-6.67,6.372,14.36,14.36,0,0,0-.233,2.436V20.6a12.364,12.364,0,0,0,.56,3.936,6.809,6.809,0,0,0,5.5,4.779,13.05,13.05,0,0,0,3.032.281c2.332,0,4.664.047,7-.047a7.457,7.457,0,0,0,6.064-3.045,3.213,3.213,0,0,1,.886-.89,1.575,1.575,0,0,1,2.052,2.3,11.836,11.836,0,0,1-4.618,3.983,10.888,10.888,0,0,1-4.2.89q-4.268.141-8.536,0a11.824,11.824,0,0,1-6.25-1.921,10.223,10.223,0,0,1-4.338-7.075,18.051,18.051,0,0,1-.28-3.561c0-2.343-.093-4.732.047-7.075A11.485,11.485,0,0,1,5.749,4.907a10.6,10.6,0,0,1,6.344-2.671,43.55,43.55,0,0,1,8.909,0,10.876,10.876,0,0,1,7.23,3.327,9.067,9.067,0,0,1,2.425,5.95,17.772,17.772,0,0,1-.233,4.966,9.71,9.71,0,0,1-6.717,7.075,14.028,14.028,0,0,1-4.618.75Z" transform="translate(0 -0.101)" fill="#ff8818"/>
    <path id="Path_307" data-name="Path 307" d="M156.2,17.372c-.046,1.874.046,3.8-.186,5.669-.7,5.341-4.2,8.9-9.516,9.464a32.563,32.563,0,0,1-10.448-.234,10.08,10.08,0,0,1-8.163-8.574,22.5,22.5,0,0,1-.326-3.561v-5.95a14.524,14.524,0,0,1,1.119-5.95,10.155,10.155,0,0,1,7.79-6.044,15.574,15.574,0,0,1,3.312-.328c2.1.047,4.2-.094,6.251.094,5.5.609,9.142,3.842,9.982,9.558A41.423,41.423,0,0,1,156.2,17.372Zm-25.421,0c.046,1.734-.046,3.42.14,5.154a7.25,7.25,0,0,0,6.95,6.841,45.889,45.889,0,0,0,8.023,0,7.282,7.282,0,0,0,7-6.981,72.568,72.568,0,0,0,0-10.073,7.2,7.2,0,0,0-6.9-6.981,47.486,47.486,0,0,0-8.162,0,7.366,7.366,0,0,0-6.9,6.934A46.271,46.271,0,0,0,130.78,17.372Z" transform="translate(-37.294 -0.056)" fill="#ff8818"/>
    <path id="Path_308" data-name="Path 308" d="M53.275,17.53a41.605,41.605,0,0,0,.187,5.388c.56,3.936,2.985,6.278,6.857,6.606a48.025,48.025,0,0,0,8.209,0,6.842,6.842,0,0,0,5.83-3.608,1.583,1.583,0,0,1,2.1-.515,1.519,1.519,0,0,1,.7,2.015,9.279,9.279,0,0,1-4.338,4.123,12.99,12.99,0,0,1-5.457,1.312,51.074,51.074,0,0,1-7.09-.094c-4.478-.468-7.789-2.53-9.375-6.934a14.626,14.626,0,0,1-.793-5.107c0-2.483-.047-5.013.047-7.5A11.259,11.259,0,0,1,53.7,4.974a11.124,11.124,0,0,1,6.717-2.717,40.9,40.9,0,0,1,8.629.094A10.61,10.61,0,0,1,76.6,6.613,1.583,1.583,0,0,1,76.317,9a1.61,1.61,0,0,1-2.332-.515,6.431,6.431,0,0,0-4.664-2.811,30.443,30.443,0,0,0-9.888.047c-3.4.609-5.457,2.952-5.97,6.419A41.031,41.031,0,0,0,53.275,17.53Z" transform="translate(-14.269 -0.121)" fill="#ff8818"/>
    <path id="Path_309" data-name="Path 309" d="M99.52,16.1V28.514a4.33,4.33,0,0,0,.046.75.359.359,0,0,0,.467.328c.28,0,.373-.141.42-.375a5.727,5.727,0,0,0,.046-.89V14.13A12.641,12.641,0,0,1,102.5,6.821a11.439,11.439,0,0,1,8.49-5.013,32.794,32.794,0,0,1,3.731-.094,1.587,1.587,0,0,1,1.726,1.593,1.637,1.637,0,0,1-1.68,1.64c-1.4.047-2.751.047-4.1.187a8.089,8.089,0,0,0-6.623,6.231,12.659,12.659,0,0,0-.28,2.952V28.561a4.092,4.092,0,0,1-1.539,3.42,3.634,3.634,0,0,1-5.83-2.39A9.162,9.162,0,0,1,96.3,28.42V3.354a1.629,1.629,0,0,1,1.586-1.687A1.65,1.65,0,0,1,99.52,3.4Z" transform="translate(-28.003)" fill="#ff8818"/>
  </g>
</svg>
