<svg xmlns="http://www.w3.org/2000/svg" width="177.257" height="35.257" viewBox="0 0 177.257 35.257">
  <g id="Group_214" data-name="Group 214" transform="translate(-399.743 -1308.062)">
    <g id="LogoEDC" transform="translate(399.443 1308.08)">
      <path id="Path_300" data-name="Path 300" d="M17.921,35.239a17.629,17.629,0,1,1,17.634-17.3A17.617,17.617,0,0,1,17.921,35.239Zm-15.8-17.8A15.809,15.809,0,1,0,18.238,1.818,15.841,15.841,0,0,0,2.12,17.439Z" fill="#2a5cfd"/>
      <path id="Path_301" data-name="Path 301" d="M66.7,52.114h7.1a5.855,5.855,0,0,1,5.694,4.55,5.983,5.983,0,0,1-1.641,5.708c-.152.165-.152.152.014.317A5.976,5.976,0,0,1,74.752,72.85a4.881,4.881,0,0,1-1.007.083H59.352a.475.475,0,0,1-.524-.345.786.786,0,0,1-.014-.179V70.727a.467.467,0,0,1,.524-.524H73.76a3.154,3.154,0,0,0,3.13-2.73,3.238,3.238,0,0,0-1.117-3.019,2.394,2.394,0,0,0-1.586-.579H70.644a.458.458,0,0,1-.51-.51V61.641a.457.457,0,0,1,.5-.5h.924c.855,0,1.7-.014,2.551,0A2.516,2.516,0,0,0,76.228,60.1a3.331,3.331,0,0,0,0-4.095A3.084,3.084,0,0,0,73.7,54.816H59.324a.467.467,0,0,1-.524-.524c0-.565.014-1.131,0-1.682a.485.485,0,0,1,.51-.51C61.792,52.114,64.246,52.114,66.7,52.114Z" transform="translate(-50.434 -44.933)" fill="#2a5cfd"/>
      <path id="Path_302" data-name="Path 302" d="M66.749,96.875H59.51a.492.492,0,0,1-.51-.51V85.6a.45.45,0,0,1,.5-.5H73.918a1.35,1.35,0,0,1,1.365,1.186,1.311,1.311,0,0,1-.317,1.062,1.4,1.4,0,0,1-1.075.483H61.84c-.11,0-.138.028-.138.138,0,.51.014,1.02,0,1.544,0,.11.041.124.138.124h6.108a.512.512,0,0,1,.469.193.477.477,0,0,1,.1.276v1.806a.477.477,0,0,1-.427.469H61.84c-.1,0-.124.014-.124.124v1.572c0,.1.028.124.124.124H73.946A1.341,1.341,0,0,1,75.3,95.344a1.357,1.357,0,0,1-1.324,1.586C71.561,96.861,69.148,96.875,66.749,96.875Z" transform="translate(-50.607 -73.383)" fill="#2a5cfd"/>
    </g>
    <text id="EDC_Blockchain" data-name="EDC Blockchain" transform="translate(446 1333)" fill="#2a5cfd" font-size="18" font-family="Arial-BoldMT, Arial" font-weight="700"><tspan x="0" y="0">EDC </tspan><tspan y="0" font-family="ArialMT, Arial" font-weight="400">Blockchain</tspan></text>
  </g>
</svg>
