<svg xmlns="http://www.w3.org/2000/svg" width="229" height="32.699" viewBox="0 0 229 32.699">
  <g id="eps" transform="translate(0.001 198.606)">
    <g id="Group_71" data-name="Group 71" transform="translate(-0.001 -198.606)">
      <g id="Group_70" data-name="Group 70">
        <g id="Group_69" data-name="Group 69">
          <path id="Path_25" data-name="Path 25" d="M37.364,42.3a6.6,6.6,0,0,0-1.157-1.884,11.347,11.347,0,0,0-1.938-1.749q-1.171-.888-2.745-1.938c-1.05-.727-1.722-1.211-2.072-1.453a6.081,6.081,0,0,1-.861-.78,3.136,3.136,0,0,1-.538-.78,1.93,1.93,0,0,1-.161-.78,1.976,1.976,0,0,1,.538-1.265,3.474,3.474,0,0,1,1.642-.834,9.459,9.459,0,0,1,2.476-.35c.538,0,.592-.027,1.1,0-.619-.969-.942-1.7-1.48-2.557-.027-.054-1.05-1.911-1.077-1.965L29.909,25.8a10.706,10.706,0,0,0-4.118.888,9.084,9.084,0,0,0-3.9,2.611A8.612,8.612,0,0,0,21,32.34a4.779,4.779,0,0,0,.323,1.83,5.464,5.464,0,0,0,.915,1.749,12.813,12.813,0,0,0,1.749,1.615c.7.538,1.642,1.346,2.96,2.261l1.346,1c.484.323.834.592,1.077.78a6.478,6.478,0,0,1,.592.538,3.58,3.58,0,0,1,.377.511,1.506,1.506,0,0,1,.215.538,1.744,1.744,0,0,1,.054.538c0,.431-.215,1.346-1.8,1.507a6.741,6.741,0,0,1-1.184.054L.655,45.285A9.7,9.7,0,0,0,.09,47.411c-.161,2.772,4.817,2.933,4.817,2.933l22.58.027h.35a16.492,16.492,0,0,0,5.275-.538,7.6,7.6,0,0,0,3.526-2.288,4.974,4.974,0,0,0,1.157-3.176A5.492,5.492,0,0,0,37.364,42.3Z" transform="translate(-0.062 -18.857)" fill="#fff"/>
          <g id="Group_68" data-name="Group 68">
            <path id="Path_26" data-name="Path 26" d="M30.729,54H18.995c-.538.969-3.095,5.517-3.095,5.517s2.288-.027,3.66,0H33.851Z" transform="translate(-11.621 -39.467)" fill="#fff" fill-rule="evenodd"/>
            <path id="Path_27" data-name="Path 27" d="M30.438,5.49,27.235,0h-9.85a3.208,3.208,0,0,0-1.211.4,5.6,5.6,0,0,0-1.911,2.045S4.332,19.835,1.1,25.406c-2.314,3.983-.888,6,3.337,6.055,1.749.027,3.526.027,5.329.027-2.476-.861-3.983-2.234-2.53-4.979,2.745-4.683,8.989-15.421,8.989-15.421S18.784,6.459,19,6.109c0,0,.135-.242.35-.619H30.438Z" transform="translate(0.001)" fill="#fff" fill-rule="evenodd"/>
          </g>
        </g>
        <path id="Path_28" data-name="Path 28" d="M87.742,25.861s0-.081-.646-.135a11.66,11.66,0,0,0-5.3.942,7.954,7.954,0,0,0-3.364,2.4A5.212,5.212,0,0,0,77.3,32.24a5.113,5.113,0,0,0,.377,1.884A5.406,5.406,0,0,0,78.7,35.846a12.13,12.13,0,0,0,1.8,1.669c.7.538,1.7,1.346,3.014,2.261,0,0-3.714-5.14,1.426-8.343a4.743,4.743,0,0,1,1.588-.619,10.6,10.6,0,0,1,2.557-.269c1.05,0,1.319.027,1.319.027Z" transform="translate(-56.496 -18.783)" fill="#fff"/>
      </g>
    </g>
    <g id="Group_72" data-name="Group 72" transform="translate(48.119 -193.466)">
      <path id="Path_34" data-name="Path 34" d="M193.683,41.419H178.8V20.4h14.883v3.929H183.268V28.77H193.44v3.956H183.268v4.737h10.415Z" transform="translate(-178.8 -20.05)" fill="#fff"/>
      <path id="Path_35" data-name="Path 35" d="M254.4,40.845A11.162,11.162,0,0,1,246.4,37.8a10.324,10.324,0,0,1-3.2-7.832,10.324,10.324,0,0,1,3.2-7.832A11.162,11.162,0,0,1,254.4,19.1a9.427,9.427,0,0,1,8.774,5.14l-3.849,1.884a5.6,5.6,0,0,0-2.018-2.18,5.322,5.322,0,0,0-2.907-.861,6.214,6.214,0,0,0-4.737,1.965A6.894,6.894,0,0,0,247.8,30a6.938,6.938,0,0,0,1.857,4.952,6.248,6.248,0,0,0,4.737,1.938,5.108,5.108,0,0,0,2.907-.861,5.486,5.486,0,0,0,2.018-2.207l3.849,1.857a9.514,9.514,0,0,1-8.774,5.167" transform="translate(-225.868 -19.1)" fill="#fff"/>
      <path id="Path_36" data-name="Path 36" d="M344.509,41.419h-5.14l-4.118-7.455h-3.283v7.455H327.5V20.4h9.823a6.952,6.952,0,0,1,5.14,1.884,6.59,6.59,0,0,1,1.911,4.871,6.388,6.388,0,0,1-1.346,4.2,5.883,5.883,0,0,1-3.256,2.045ZM336.65,30.008a3.215,3.215,0,0,0,2.261-.78,2.862,2.862,0,0,0,0-4.145,3.343,3.343,0,0,0-2.261-.78h-4.683v5.679h4.683Z" transform="translate(-287.481 -20.05)" fill="#fff"/>
      <path id="Path_37" data-name="Path 37" d="M409.953,40.845a10.711,10.711,0,0,1-7.859-3.068,10.5,10.5,0,0,1-3.095-7.8,10.546,10.546,0,0,1,3.095-7.8,11.633,11.633,0,0,1,15.744,0,10.462,10.462,0,0,1,3.095,7.8,10.42,10.42,0,0,1-3.095,7.8,10.774,10.774,0,0,1-7.885,3.068m-4.629-5.921a6.4,6.4,0,0,0,9.231,0,7.074,7.074,0,0,0,1.776-4.952,7.12,7.12,0,0,0-1.776-4.952,6,6,0,0,0-4.629-1.965,5.812,5.812,0,0,0-4.6,1.965,7.181,7.181,0,0,0-1.749,4.952,7.36,7.36,0,0,0,1.749,4.952" transform="translate(-339.738 -19.1)" fill="#fff"/>
      <path id="Path_38" data-name="Path 38" d="M489,37.508l1.561-2.018a8.716,8.716,0,0,0,6.594,3.014c3.741,0,4.952-2.018,4.952-3.66,0-5.409-12.434-2.4-12.434-9.877,0-3.472,3.095-5.867,7.24-5.867a9.851,9.851,0,0,1,7.428,2.96l-1.561,1.911a7.9,7.9,0,0,0-6.082-2.53c-2.476,0-4.306,1.346-4.306,3.337,0,4.71,12.434,2.018,12.434,9.85,0,3.014-2.072,6.163-7.751,6.163A10.245,10.245,0,0,1,489,37.508" transform="translate(-405.517 -19.1)" fill="#fff"/>
      <path id="Path_39" data-name="Path 39" d="M555.2,61a3.549,3.549,0,0,0,1.292.242,2.177,2.177,0,0,0,2.261-1.615l1-2.288L553.4,42h2.584l5.033,12.461L566.1,42h2.557l-7.616,18.3a4.549,4.549,0,0,1-4.468,3.095,8.1,8.1,0,0,1-1.7-.215Z" transform="translate(-452.585 -35.837)" fill="#fff"/>
      <path id="Path_40" data-name="Path 40" d="M614.4,54.164l1.184-1.7a6.913,6.913,0,0,0,5.006,2.18c2.341,0,3.633-1.1,3.633-2.611,0-3.687-9.419-1.426-9.419-7.051,0-2.4,2.018-4.387,5.625-4.387a7.507,7.507,0,0,1,5.625,2.207l-1.1,1.642a5.869,5.869,0,0,0-4.521-1.911c-2.072,0-3.364,1.05-3.364,2.4,0,3.31,9.419,1.13,9.419,7.051,0,2.557-2.045,4.6-5.948,4.6a8.354,8.354,0,0,1-6.136-2.422" transform="translate(-497.168 -34.814)" fill="#fff"/>
      <path id="Path_41" data-name="Path 41" d="M668.53,42.675V32.717H666V30.671h2.5V26.5h2.4v4.171h3.095v2.072H670.9V42.19c0,1.13.511,1.965,1.507,1.965a2.251,2.251,0,0,0,1.615-.673l.7,1.8a3.831,3.831,0,0,1-2.8.969c-2.261,0-3.391-1.292-3.391-3.579" transform="translate(-534.882 -24.508)" fill="#fff"/>
      <path id="Path_42" data-name="Path 42" d="M704.8,48.566c0-4.414,3.149-7.966,7.482-7.966,4.6,0,7.293,3.579,7.293,8.155v.592H707.3a5.315,5.315,0,0,0,5.436,5.248,6.612,6.612,0,0,0,4.71-1.938l1.13,1.534a8.385,8.385,0,0,1-6.055,2.368c-4.494,0-7.724-3.256-7.724-7.993m7.455-6.028a5.089,5.089,0,0,0-4.979,5.033h9.985a4.911,4.911,0,0,0-5.006-5.033" transform="translate(-563.24 -34.814)" fill="#fff"/>
      <path id="Path_43" data-name="Path 43" d="M792.254,56.182V45.848c0-1.911-.807-3.149-2.8-3.149a5.238,5.238,0,0,0-4.037,2.341V56.182h-2.341V45.848c0-1.911-.781-3.149-2.8-3.149a5.351,5.351,0,0,0-4.01,2.368V56.182H773.9V40.977h2.368v2.207A6.674,6.674,0,0,1,781.22,40.6a3.9,3.9,0,0,1,4.064,2.826A6.456,6.456,0,0,1,790.37,40.6c2.772,0,4.252,1.534,4.252,4.6v10.98Z" transform="translate(-613.743 -34.814)" fill="#fff"/>
    </g>
  </g>
</svg>
