<svg xmlns="http://www.w3.org/2000/svg" xmlns:xlink="http://www.w3.org/1999/xlink" width="160" height="22.846" viewBox="0 0 160 22.846">
  <defs>
    <linearGradient id="linear-gradient" x1="0.677" y1="1.162" x2="0.359" y2="0.316" gradientUnits="objectBoundingBox">
      <stop offset="0" stop-color="#f58721"/>
      <stop offset="0.026" stop-color="#f47e21"/>
      <stop offset="0.124" stop-color="#f16323"/>
      <stop offset="0.21" stop-color="#f05224"/>
      <stop offset="0.275" stop-color="#ef4c24"/>
      <stop offset="0.535" stop-color="#db3027"/>
      <stop offset="0.728" stop-color="#cf2028"/>
      <stop offset="1" stop-color="#86191b"/>
    </linearGradient>
    <linearGradient id="linear-gradient-2" x1="16.873" y1="5.343" x2="17.924" y2="0.444" gradientUnits="objectBoundingBox">
      <stop offset="0" stop-color="#8ad0ca"/>
      <stop offset="0.246" stop-color="#00aed2"/>
      <stop offset="0.658" stop-color="#1372b8"/>
      <stop offset="1" stop-color="#1b4899"/>
    </linearGradient>
    <linearGradient id="linear-gradient-3" x1="0.5" y1="1.538" x2="0.5" y2="-0.598" xlink:href="#linear-gradient-2"/>
    <linearGradient id="linear-gradient-4" x1="-0.141" y1="-0.581" x2="0.749" y2="0.855" xlink:href="#linear-gradient-2"/>
  </defs>
  <g id="eps" transform="translate(0.001 198.606)">
    <g id="Group_71" data-name="Group 71" transform="translate(-0.001 -198.606)">
      <g id="Group_70" data-name="Group 70">
        <g id="Group_69" data-name="Group 69">
          <path id="Path_25" data-name="Path 25" d="M26.131,37.327a4.609,4.609,0,0,0-.809-1.316,7.928,7.928,0,0,0-1.354-1.222q-.818-.621-1.918-1.354c-.733-.508-1.2-.846-1.448-1.015a4.249,4.249,0,0,1-.6-.545,2.191,2.191,0,0,1-.376-.545,1.349,1.349,0,0,1-.113-.545,1.381,1.381,0,0,1,.376-.884,2.427,2.427,0,0,1,1.147-.583,6.609,6.609,0,0,1,1.73-.244c.376,0,.414-.019.771,0-.432-.677-.658-1.185-1.034-1.786-.019-.038-.733-1.335-.752-1.373l-.827-.113a7.48,7.48,0,0,0-2.877.621,6.347,6.347,0,0,0-2.727,1.824,6.017,6.017,0,0,0-.621,2.125,3.339,3.339,0,0,0,.226,1.279,3.818,3.818,0,0,0,.639,1.222A8.952,8.952,0,0,0,16.786,34c.489.376,1.147.94,2.068,1.579l.94.7c.338.226.583.414.752.545a4.526,4.526,0,0,1,.414.376,2.5,2.5,0,0,1,.263.357,1.052,1.052,0,0,1,.15.376,1.218,1.218,0,0,1,.038.376c0,.3-.15.94-1.26,1.053a4.71,4.71,0,0,1-.827.038L.483,39.414A6.774,6.774,0,0,0,.088,40.9c-.113,1.937,3.366,2.05,3.366,2.05l15.776.019h.244a11.523,11.523,0,0,0,3.686-.376,5.308,5.308,0,0,0,2.463-1.6,3.475,3.475,0,0,0,.809-2.219A3.838,3.838,0,0,0,26.131,37.327Z" transform="translate(-0.069 -20.949)" fill="url(#linear-gradient)"/>
          <g id="Group_68" data-name="Group 68">
            <path id="Path_26" data-name="Path 26" d="M26.261,54h-8.2c-.376.677-2.162,3.855-2.162,3.855s1.6-.019,2.557,0h9.985Z" transform="translate(-12.91 -43.846)" fill-rule="evenodd" fill="url(#linear-gradient-2)"/>
            <path id="Path_27" data-name="Path 27" d="M21.266,3.836,19.029,0H12.146A2.241,2.241,0,0,0,11.3.282,3.916,3.916,0,0,0,9.965,1.711S3.027,13.858.77,17.751C-.847,20.534.15,21.944,3.1,21.981,4.324,22,5.565,22,6.825,22c-1.73-.6-2.783-1.561-1.768-3.479,1.918-3.272,6.28-10.774,6.28-10.774s1.786-3.234,1.937-3.479c0,0,.094-.169.244-.432h7.747Z" transform="translate(0.001)" fill-rule="evenodd" fill="url(#linear-gradient-3)"/>
          </g>
        </g>
        <path id="Path_28" data-name="Path 28" d="M84.6,25.813s0-.056-.451-.094a8.147,8.147,0,0,0-3.7.658,5.557,5.557,0,0,0-2.35,1.674,3.641,3.641,0,0,0-.79,2.219,3.572,3.572,0,0,0,.263,1.316,3.777,3.777,0,0,0,.715,1.2,8.475,8.475,0,0,0,1.26,1.166c.489.376,1.185.94,2.106,1.58,0,0-2.595-3.591,1-5.829a3.314,3.314,0,0,1,1.109-.432,7.407,7.407,0,0,1,1.786-.188c.733,0,.921.019.921.019Z" transform="translate(-62.765 -20.867)" fill="url(#linear-gradient-4)"/>
      </g>
    </g>
    <g id="Group_72" data-name="Group 72" transform="translate(33.62 -195.015)">
      <path id="Path_34" data-name="Path 34" d="M189.2,35.086H178.8V20.4h10.4v2.745h-7.277v3.1h7.108v2.764h-7.108v3.309H189.2Z" transform="translate(-178.8 -20.156)" fill="#738496"/>
      <path id="Path_35" data-name="Path 35" d="M251.022,34.293a7.8,7.8,0,0,1-5.585-2.125A7.213,7.213,0,0,1,243.2,26.7a7.213,7.213,0,0,1,2.238-5.472,7.8,7.8,0,0,1,5.585-2.125,6.587,6.587,0,0,1,6.13,3.591l-2.689,1.316a3.909,3.909,0,0,0-1.41-1.523,3.718,3.718,0,0,0-2.031-.6,4.342,4.342,0,0,0-3.309,1.373,4.817,4.817,0,0,0-1.3,3.46,4.848,4.848,0,0,0,1.3,3.46,4.366,4.366,0,0,0,3.309,1.354,3.569,3.569,0,0,0,2.031-.6,3.833,3.833,0,0,0,1.41-1.542l2.689,1.3a6.647,6.647,0,0,1-6.13,3.61" transform="translate(-231.09 -19.1)" fill="#738496"/>
      <path id="Path_36" data-name="Path 36" d="M339.384,35.086h-3.591l-2.877-5.209h-2.294v5.209H327.5V20.4h6.863a4.857,4.857,0,0,1,3.591,1.316,4.6,4.6,0,0,1,1.335,3.4,4.463,4.463,0,0,1-.94,2.933,4.11,4.11,0,0,1-2.275,1.429Zm-5.491-7.973a2.246,2.246,0,0,0,1.58-.545,2,2,0,0,0,0-2.9,2.336,2.336,0,0,0-1.58-.545h-3.272v3.968h3.272Z" transform="translate(-299.539 -20.156)" fill="#738496"/>
      <path id="Path_37" data-name="Path 37" d="M406.653,34.293a7.484,7.484,0,0,1-5.491-2.144A7.339,7.339,0,0,1,399,26.7a7.368,7.368,0,0,1,2.162-5.453,8.128,8.128,0,0,1,11,0,7.31,7.31,0,0,1,2.162,5.453,7.281,7.281,0,0,1-2.162,5.453,7.528,7.528,0,0,1-5.509,2.144m-3.234-4.137a4.474,4.474,0,0,0,6.45,0,4.943,4.943,0,0,0,1.241-3.46,4.975,4.975,0,0,0-1.241-3.46,4.189,4.189,0,0,0-3.234-1.373,4.061,4.061,0,0,0-3.215,1.373A5.017,5.017,0,0,0,402.2,26.7a5.143,5.143,0,0,0,1.222,3.46" transform="translate(-357.594 -19.1)" fill="#738496"/>
      <path id="Path_38" data-name="Path 38" d="M489,31.962l1.091-1.41a6.09,6.09,0,0,0,4.607,2.106c2.614,0,3.46-1.41,3.46-2.557,0-3.78-8.687-1.674-8.687-6.9,0-2.426,2.162-4.1,5.058-4.1a6.883,6.883,0,0,1,5.19,2.068L498.627,22.5a5.518,5.518,0,0,0-4.25-1.768c-1.73,0-3.009.94-3.009,2.332,0,3.291,8.687,1.41,8.687,6.882,0,2.106-1.448,4.306-5.415,4.306A7.158,7.158,0,0,1,489,31.962" transform="translate(-430.671 -19.1)" fill="#738496"/>
      <path id="Path_39" data-name="Path 39" d="M554.66,55.275a2.48,2.48,0,0,0,.9.169,1.521,1.521,0,0,0,1.58-1.128l.7-1.6L553.4,42h1.805l3.516,8.706L562.275,42h1.786L558.74,54.786a3.178,3.178,0,0,1-3.121,2.162,5.659,5.659,0,0,1-1.185-.15Z" transform="translate(-482.962 -37.694)" fill="#738496"/>
      <path id="Path_40" data-name="Path 40" d="M614.4,50.077l.827-1.185a4.83,4.83,0,0,0,3.5,1.523c1.636,0,2.538-.771,2.538-1.824,0-2.576-6.581-1-6.581-4.927,0-1.674,1.41-3.065,3.93-3.065a5.245,5.245,0,0,1,3.93,1.542l-.771,1.147a4.1,4.1,0,0,0-3.159-1.335c-1.448,0-2.35.733-2.35,1.674,0,2.313,6.581.79,6.581,4.927,0,1.786-1.429,3.215-4.156,3.215a5.837,5.837,0,0,1-4.287-1.692" transform="translate(-532.492 -36.557)" fill="#738496"/>
      <path id="Path_41" data-name="Path 41" d="M667.768,37.8V30.844H666V29.415h1.749V26.5h1.674v2.915h2.162v1.448h-2.162v6.6c0,.79.357,1.373,1.053,1.373a1.573,1.573,0,0,0,1.128-.47l.489,1.26a2.677,2.677,0,0,1-1.956.677,2.182,2.182,0,0,1-2.369-2.5" transform="translate(-574.389 -25.109)" fill="#738496"/>
      <path id="Path_42" data-name="Path 42" d="M704.8,46.166a5.31,5.31,0,0,1,5.227-5.566c3.215,0,5.1,2.5,5.1,5.7v.414h-8.574a3.714,3.714,0,0,0,3.8,3.667,4.62,4.62,0,0,0,3.291-1.354l.79,1.072a5.858,5.858,0,0,1-4.231,1.655,5.264,5.264,0,0,1-5.4-5.585m5.209-4.212a3.556,3.556,0,0,0-3.479,3.516h6.976a3.431,3.431,0,0,0-3.5-3.516" transform="translate(-605.893 -36.557)" fill="#738496"/>
      <path id="Path_43" data-name="Path 43" d="M786.724,51.487V44.267c0-1.335-.564-2.2-1.956-2.2a3.66,3.66,0,0,0-2.821,1.636v7.785h-1.636V44.267c0-1.335-.545-2.2-1.956-2.2a3.739,3.739,0,0,0-2.8,1.655v7.766H773.9V40.863h1.655v1.542a4.663,4.663,0,0,1,3.46-1.805,2.726,2.726,0,0,1,2.839,1.974,4.511,4.511,0,0,1,3.554-1.974c1.937,0,2.971,1.072,2.971,3.215v7.672Z" transform="translate(-662 -36.557)" fill="#738496"/>
    </g>
  </g>
</svg>
