<svg version="1.1" id="Layer_1" xmlns="http://www.w3.org/2000/svg" xmlns:xlink="http://www.w3.org/1999/xlink" x="0px" y="0px" viewBox="0 0 266.9 266.9" style="enable-background:new 0 0 266.9 266.9;" xml:space="preserve">
<path d="M250.7,1.7H16.2c-8,0-14.5,6.5-14.5,14.5v234.5c0,8,6.5,14.5,14.5,14.5h126.2V163.4h-34.3v-39.8h34.3V94.1
	c0-34.1,20.8-52.7,51.2-52.7c14.5,0,27,1.1,30.7,1.6v35.6l-21.1,0c-16.5,0-19.7,7.9-19.7,19.4v25.4h39.4l-5.1,39.8h-34.3v101.9h67.2
	c8,0,14.5-6.5,14.5-14.5V16.2C265.2,8.2,258.7,1.7,250.7,1.7z"></path>
</svg>