<svg xmlns="http://www.w3.org/2000/svg" width="9.33" height="17.258" viewBox="0 0 9.33 17.258">
  <g id="facebook-logo" transform="translate(-22.077)">
    <path id="Path_22" data-name="Path 22" d="M31.056,0,28.818,0a3.93,3.93,0,0,0-4.139,4.247V6.205h-2.25a.352.352,0,0,0-.352.352V9.395a.352.352,0,0,0,.352.352h2.25v7.159a.352.352,0,0,0,.352.352h2.936a.352.352,0,0,0,.352-.352V9.747H30.95a.352.352,0,0,0,.352-.352V6.557a.352.352,0,0,0-.352-.352H28.319V4.545c0-.8.19-1.2,1.229-1.2h1.508a.352.352,0,0,0,.352-.352V.355A.352.352,0,0,0,31.056,0Z" fill="#fff"/>
  </g>
</svg>
