<svg xmlns="http://www.w3.org/2000/svg" width="28" height="28" viewBox="0 0 28 28">
                                                <g id="Group_163" data-name="Group 163" transform="translate(-1180 -446)">
                                                    <circle id="Ellipse_31" data-name="Ellipse 31" cx="14" cy="14" r="14" transform="translate(1180 446)" fill="#0024de"></circle>
                                                    <g id="facebook-logo_1_" data-name="facebook-logo (1)" transform="translate(1168.227 453)">
                                                        <path id="Path_19" data-name="Path 19" d="M29.454,0,27.615,0a3.229,3.229,0,0,0-3.4,3.489V5.1H22.366a.289.289,0,0,0-.289.289V7.718a.289.289,0,0,0,.289.289h1.849v5.882a.289.289,0,0,0,.289.289h2.412a.289.289,0,0,0,.289-.289V8.007h2.161a.289.289,0,0,0,.289-.289V5.387a.289.289,0,0,0-.289-.289H27.2V3.734c0-.655.156-.988,1.01-.988h1.239a.289.289,0,0,0,.289-.289V.292A.289.289,0,0,0,29.454,0Z" fill="#fff"></path>
                                                    </g>
                                                </g>
                                            </svg>