<svg xmlns="http://www.w3.org/2000/svg" width="74.733" height="74.23" viewBox="0 0 74.733 74.23">
  <g id="hacker2" transform="translate(0 -0.378)">
    <path id="Path_510" data-name="Path 510" d="M164.063,32.254a25.755,25.755,0,1,0,6.8-24.322Zm0,0" transform="translate(-140.104)" fill="#95a5a5"/>
    <path id="Path_511" data-name="Path 511" d="M236.74,56.283a20.614,20.614,0,0,1-41.033,2.849l4.435-15.895a20.626,20.626,0,0,1,36.018,8.147A21.151,21.151,0,0,1,236.74,56.283Zm0,0" transform="translate(-167.128 -30.122)" fill="#b0d3f0"/>
    <path id="Path_512" data-name="Path 512" d="M264.784,147.664a20.613,20.613,0,0,1-36.237,13.458c5.234-9.256,15.611-19.633,35.657-18.357A21.15,21.15,0,0,1,264.784,147.664Zm0,0" transform="translate(-195.172 -121.502)" fill="#90bae1"/>
    <path id="Path_513" data-name="Path 513" d="M152.656,302.016l7.735-7.735,1.823,1.823-7.735,7.734Zm0,0" transform="translate(-130.364 -250.984)" fill="#7f8c8d"/>
    <path id="Path_514" data-name="Path 514" d="M130.908,341.622l-2.165,2.166-5.157-5.157,2.166-2.165a1.288,1.288,0,0,1,1.817,0l3.339,3.339A1.289,1.289,0,0,1,130.908,341.622Zm0,0" transform="translate(-105.539 -286.688)" fill="#95a5a5"/>
    <path id="Path_515" data-name="Path 515" d="M26.351,358.645,9.219,375.777a1.3,1.3,0,0,1-1.831,0l-3.326-3.326a1.3,1.3,0,0,1,0-1.831l17.132-17.132Zm0,0" transform="translate(-3.147 -301.545)" fill="#cc4b4c"/>
    <path id="Path_516" data-name="Path 516" d="M272.563,180.805a3.867,3.867,0,1,1-3.868-3.868A3.867,3.867,0,0,1,272.563,180.805Zm0,0" transform="translate(-226.155 -150.776)" fill="#4482c3"/>
    <path id="Path_517" data-name="Path 517" d="M360.837,180.805a3.868,3.868,0,1,1-3.868-3.868A3.867,3.867,0,0,1,360.837,180.805Zm0,0" transform="translate(-301.538 -150.776)" fill="#4482c3"/>
    <path id="Path_518" data-name="Path 518" d="M261.156,178.422a5.156,5.156,0,1,1,5.157-5.156A5.156,5.156,0,0,1,261.156,178.422Zm0-7.735a2.578,2.578,0,1,0,2.578,2.578A2.578,2.578,0,0,0,261.156,170.688Zm0,0" transform="translate(-218.616 -143.237)" fill="#285680"/>
    <path id="Path_519" data-name="Path 519" d="M349.434,178.422a5.156,5.156,0,1,1,5.157-5.156A5.156,5.156,0,0,1,349.434,178.422Zm0-7.735a2.578,2.578,0,1,0,2.578,2.578A2.578,2.578,0,0,0,349.434,170.688Zm0,0" transform="translate(-294.002 -143.237)" fill="#285680"/>
    <path id="Path_520" data-name="Path 520" d="M286.116,118.3l-3.006-9.14a1.289,1.289,0,0,0-1.576-.838l-7.418,2.095a1.29,1.29,0,0,1-1-.129l-2.6-1.5a1.289,1.289,0,0,0-1.873.712l-2.89,8.8Zm0,0" transform="translate(-226.946 -92.143)" fill="#2c3e50"/>
    <path id="Path_521" data-name="Path 521" d="M317.793,194.594h5.156v2.578h-5.156Zm0,0" transform="translate(-271.385 -165.854)" fill="#285680"/>
    <path id="Path_522" data-name="Path 522" d="M33.516,17.145A16.758,16.758,0,1,1,16.758.387,16.758,16.758,0,0,1,33.516,17.145Zm0,0" transform="translate(0 -0.007)" fill="#cc4b4c"/>
    <path id="Path_523" data-name="Path 523" d="M102.258,161.86a2.578,2.578,0,1,1-2.578-2.578A2.579,2.579,0,0,1,102.258,161.86Zm0,0" transform="translate(-82.922 -135.698)" fill="#f0c419"/>
    <path id="Path_524" data-name="Path 524" d="M94.656,35.677H92.616a2.466,2.466,0,0,0-2.59,2.578l.819,8.182a2.494,2.494,0,0,0,2.566,2.131h.448a2.5,2.5,0,0,0,2.567-2.131l.819-8.182a2.467,2.467,0,0,0-2.59-2.578Zm0,0" transform="translate(-76.878 -30.141)" fill="#f0c419"/>
    <path id="Path_525" data-name="Path 525" d="M265.415,170.688H239.633a1.289,1.289,0,0,1,0-2.578h25.782a1.289,1.289,0,0,1,0,2.578Zm0,0" transform="translate(-203.538 -143.237)" fill="#35495e"/>
  </g>
</svg>
