<svg version="1.1" id="Layer_1" xmlns="http://www.w3.org/2000/svg" xmlns:xlink="http://www.w3.org/1999/xlink" x="0px" y="0px" viewBox="0 0 512 512" style="enable-background:new 0 0 512 512;" xml:space="preserve">
<g>
	<path d="M470.1,1H44.6C21.3,1,1,17.7,1,40.7v426.5c0,23.1,20.3,43.7,43.6,43.7H470c23.4,0,40.9-20.7,40.9-43.7V40.7
		C511,17.7,493.4,1,470.1,1z M159.1,426H86V198.9h73.1V426z M125.1,164.4h-0.5c-23.4,0-38.5-17.4-38.5-39.2
		C86,103,101.5,86,125.5,86s38.5,16.9,39,39.2C164.5,147,149.4,164.4,125.1,164.4z M426,426H353V301.8c0-29.8-10.6-50.1-37.1-50.1
		c-20.2,0-32.1,13.7-37.5,27c-2,4.8-2.5,11.3-2.5,17.9V426h-73.1V198.9h73.1v31.6c10.6-15.1,27.2-36.9,65.9-36.9
		c47.9,0,84.2,31.6,84.2,99.7V426z"></path>
</g>
</svg>