<svg id="instagram" xmlns="http://www.w3.org/2000/svg" width="21.735" height="21.739" viewBox="0 0 21.735 21.739">
  <path id="Path_453" data-name="Path 453" d="M22.129,6.391a7.943,7.943,0,0,0-.505-2.637A5.569,5.569,0,0,0,18.443.573,7.964,7.964,0,0,0,15.805.068C14.642.013,14.272,0,11.321,0S8,.013,6.841.064A7.946,7.946,0,0,0,4.2.569,5.3,5.3,0,0,0,2.275,1.826,5.352,5.352,0,0,0,1.023,3.75,7.965,7.965,0,0,0,.517,6.387C.462,7.551.449,7.92.449,10.872s.013,3.321.064,4.48a7.943,7.943,0,0,0,.505,2.637A5.568,5.568,0,0,0,4.2,21.17a7.965,7.965,0,0,0,2.637.505c1.159.051,1.529.064,4.48.064s3.321-.013,4.48-.064a7.941,7.941,0,0,0,2.637-.505,5.56,5.56,0,0,0,3.181-3.181,7.97,7.97,0,0,0,.505-2.637c.051-1.159.064-1.529.064-4.48S22.18,7.551,22.129,6.391Zm-1.958,8.876a5.959,5.959,0,0,1-.374,2.017,3.606,3.606,0,0,1-2.064,2.064,5.98,5.98,0,0,1-2.017.374c-1.147.051-1.491.064-4.391.064s-3.249-.013-4.391-.064a5.955,5.955,0,0,1-2.017-.374,3.345,3.345,0,0,1-1.248-.811,3.38,3.38,0,0,1-.811-1.248,5.981,5.981,0,0,1-.374-2.017c-.051-1.147-.064-1.491-.064-4.391s.013-3.249.064-4.391a5.955,5.955,0,0,1,.374-2.017,3.3,3.3,0,0,1,.816-1.249,3.375,3.375,0,0,1,1.248-.811,5.984,5.984,0,0,1,2.017-.374c1.147-.051,1.491-.064,4.391-.064s3.249.013,4.391.064a5.959,5.959,0,0,1,2.017.374,3.343,3.343,0,0,1,1.248.811A3.379,3.379,0,0,1,19.8,4.472a5.983,5.983,0,0,1,.374,2.017c.051,1.147.064,1.49.064,4.391S20.222,14.12,20.171,15.267Zm0,0" transform="translate(-0.449 0)" fill="#738496"/>
  <path id="Path_454" data-name="Path 454" d="M130.534,124.5a5.584,5.584,0,1,0,5.584,5.584A5.586,5.586,0,0,0,130.534,124.5Zm0,9.207a3.622,3.622,0,1,1,3.622-3.622A3.623,3.623,0,0,1,130.534,133.707Zm0,0" transform="translate(-119.662 -119.213)" fill="#738496"/>
  <path id="Path_455" data-name="Path 455" d="M365.057,89.905a1.3,1.3,0,1,1-1.3-1.3A1.3,1.3,0,0,1,365.057,89.905Zm0,0" transform="translate(-347.076 -84.839)" fill="#738496"/>
</svg>
