<svg id="linkedin" xmlns="http://www.w3.org/2000/svg" width="21.743" height="21.743" viewBox="0 0 21.743 21.743">
  <g id="Group_225" data-name="Group 225" transform="translate(0 6.795)">
    <g id="Group_224" data-name="Group 224">
      <rect id="Rectangle_291" data-name="Rectangle 291" width="4.862" height="14.948" fill="#738496"/>
    </g>
  </g>
  <g id="Group_227" data-name="Group 227" transform="translate(6.795 6.795)">
    <g id="Group_226" data-name="Group 226">
      <path id="Path_456" data-name="Path 456" d="M171.312,160.175c-.052-.016-.1-.034-.155-.049s-.13-.027-.2-.038a4.358,4.358,0,0,0-.872-.088,6.756,6.756,0,0,0-5.225,2.858V160H160v14.948h4.862v-8.154s3.675-5.118,5.225-1.359v9.513h4.861V164.861A4.848,4.848,0,0,0,171.312,160.175Z" transform="translate(-160 -160)" fill="#738496"/>
    </g>
  </g>
  <g id="Group_229" data-name="Group 229" transform="translate(0.175)">
    <g id="Group_228" data-name="Group 228">
      <ellipse id="Ellipse_120" data-name="Ellipse 120" cx="2.311" cy="2.311" rx="2.311" ry="2.311" fill="#738496"/>
    </g>
  </g>
</svg>
