<svg xmlns="http://www.w3.org/2000/svg" width="160" height="22.742" viewBox="0 0 160 22.742">
  <g id="Group_222" data-name="Group 222" transform="translate(-285 -20.32)">
    <g id="LogoEDC" transform="translate(284.7 20.338)">
      <path id="Path_300" data-name="Path 300" d="M11.666,22.724A11.371,11.371,0,1,1,23.04,11.562,11.364,11.364,0,0,1,11.666,22.724ZM1.474,11.242A10.2,10.2,0,1,0,11.87,1.166,10.218,10.218,0,0,0,1.474,11.242Z" transform="translate(0 0)" fill="#2a5cfd"/>
      <path id="Path_301" data-name="Path 301" d="M63.9,52.109h4.58a3.776,3.776,0,0,1,3.673,2.935,3.859,3.859,0,0,1-1.058,3.682c-.1.107-.1.1.009.2a3.855,3.855,0,0,1-2.01,6.554,3.149,3.149,0,0,1-.649.053H59.156a.306.306,0,0,1-.338-.222.507.507,0,0,1-.009-.116V64.115a.3.3,0,0,1,.338-.338h9.3a2.034,2.034,0,0,0,2.019-1.761,2.089,2.089,0,0,0-.72-1.948,1.544,1.544,0,0,0-1.023-.374H66.439a.3.3,0,0,1-.329-.329V58.254a.3.3,0,0,1,.32-.32h.6c.551,0,1.094-.009,1.645,0a1.623,1.623,0,0,0,1.37-.676,2.149,2.149,0,0,0,0-2.641,1.989,1.989,0,0,0-1.627-.765H59.138a.3.3,0,0,1-.338-.338c0-.365.009-.729,0-1.085a.313.313,0,0,1,.329-.329C60.73,52.109,62.313,52.109,63.9,52.109Z" transform="translate(-53.297 -47.483)" fill="#2a5cfd"/>
      <path id="Path_302" data-name="Path 302" d="M64,92.695H59.329A.317.317,0,0,1,59,92.366V85.42a.29.29,0,0,1,.32-.32h9.3a.871.871,0,0,1,.88.765.846.846,0,0,1-.2.685.906.906,0,0,1-.694.311H60.832c-.071,0-.089.018-.089.089,0,.329.009.658,0,1,0,.071.027.08.089.08h3.94a.33.33,0,0,1,.3.125.307.307,0,0,1,.062.178v1.165a.308.308,0,0,1-.276.3H60.832c-.062,0-.08.009-.08.08V90.89c0,.062.018.08.08.08H68.64a.865.865,0,0,1,.872.738.876.876,0,0,1-.854,1.023C67.1,92.686,65.546,92.695,64,92.695Z" transform="translate(-53.48 -77.548)" fill="#2a5cfd"/>
    </g>
    <text id="EDC_Blockchain" data-name="EDC Blockchain" transform="translate(314 39)" fill="#2a5cfd" font-size="18" font-family="Arial-BoldMT, Arial" font-weight="700"><tspan x="0" y="0">EDC </tspan><tspan y="0" font-family="ArialMT, Arial" font-weight="400">Blockchain</tspan></text>
  </g>
</svg>
