<svg id="manual" xmlns="http://www.w3.org/2000/svg" width="59" height="41.3" viewBox="0 0 59 41.3">
  <path id="Path_44" data-name="Path 44" d="M33.433.983A.983.983,0,0,0,32.45,0H4.917A4.922,4.922,0,0,0,0,4.917V36.383A4.911,4.911,0,0,0,4.917,41.3H30.483a.983.983,0,0,0,.983-.983V33.433h.983a.983.983,0,0,0,.983-.983ZM1.967,4.917a2.95,2.95,0,0,1,2.95-2.95H5.9v29.5H4.917a4.881,4.881,0,0,0-.911.093c-.1.017-.184.046-.277.069a4.889,4.889,0,0,0-.585.183c-.1.038-.2.081-.295.126a4.811,4.811,0,0,0-.513.278,2.829,2.829,0,0,0-.253.161c-.038.028-.083.048-.12.076ZM29.5,35.4H4.917v1.967H29.5v1.967H4.917a2.95,2.95,0,1,1,0-5.9H29.5Zm1.967-3.933H7.867V1.967h23.6Zm0,0" transform="translate(0)" fill="#fff"/>
  <path id="Path_45" data-name="Path 45" d="M88.983,55.867h15.733a.983.983,0,0,0,.983-.983v-5.9a.983.983,0,0,0-.983-.983H88.983a.983.983,0,0,0-.983.983v5.9A.983.983,0,0,0,88.983,55.867Zm.983-5.9h13.767V53.9H89.967Zm0,0" transform="translate(-77.183 -42.1)" fill="#fff"/>
  <path id="Path_46" data-name="Path 46" d="M296.583,15.733H290.82a14.555,14.555,0,0,0-.59-1.441l4.073-4.071a.984.984,0,0,0,0-1.391L288.74,3.266a1.014,1.014,0,0,0-1.391,0l-4.071,4.072a14.857,14.857,0,0,0-1.442-.59V.983A.983.983,0,0,0,280.853,0h-6.886V1.967h5.9V7.46a.983.983,0,0,0,.7.943A12.712,12.712,0,0,1,283,9.4a.984.984,0,0,0,1.163-.169l3.88-3.881,4.173,4.173-3.882,3.88a.984.984,0,0,0-.168,1.163,12.75,12.75,0,0,1,1,2.428.983.983,0,0,0,.943.7H295.6v5.9h-5.495a.983.983,0,0,0-.943.7,12.667,12.667,0,0,1-1,2.427.984.984,0,0,0,.168,1.164l3.882,3.88-4.173,4.173-3.88-3.881A.984.984,0,0,0,283,31.9a12.756,12.756,0,0,1-2.428,1,.983.983,0,0,0-.7.943v5.494h-5.9V33.84H272v6.477a.983.983,0,0,0,.983.983h7.867a.983.983,0,0,0,.983-.983V34.554a15.1,15.1,0,0,0,1.441-.59l4.071,4.072a.984.984,0,0,0,1.391,0l5.563-5.563a.984.984,0,0,0,0-1.391l-4.073-4.072a14.506,14.506,0,0,0,.59-1.44h5.766a.983.983,0,0,0,.983-.983V16.717A.983.983,0,0,0,296.583,15.733Zm0,0" transform="translate(-238.567)" fill="#fff"/>
  <path id="Path_47" data-name="Path 47" d="M287.932,117.767a5.83,5.83,0,0,1-2.527-.568l-.846,1.776a7.867,7.867,0,1,0,0-14.217l.846,1.776a5.83,5.83,0,0,1,2.527-.568,5.9,5.9,0,0,1,0,11.8Zm0,0" transform="translate(-249.582 -91.216)" fill="#fff"/>
</svg>
