<svg id="marketplace-logo" xmlns="http://www.w3.org/2000/svg" width="79.791" height="21.265" viewBox="0 0 79.791 21.265">
  <path id="Path_306" data-name="Path 306" d="M10.511,17.234H6.752a1.048,1.048,0,0,1-1.051-.96,1.086,1.086,0,0,1,.956-1.152c.127-.032.287,0,.414-.032h6.116a8.341,8.341,0,0,0,2.93-.416,4.4,4.4,0,0,0,3.249-3.424A8.885,8.885,0,0,0,19.334,7.7a4.045,4.045,0,0,0-2.9-2.944,7.886,7.886,0,0,0-2.262-.448,35.593,35.593,0,0,0-5.224.064A5.055,5.055,0,0,0,4.395,8.723a9.806,9.806,0,0,0-.159,1.664v4.319a8.443,8.443,0,0,0,.382,2.688,4.65,4.65,0,0,0,3.759,3.264,8.912,8.912,0,0,0,2.07.192c1.593,0,3.185.032,4.778-.032a5.093,5.093,0,0,0,4.141-2.08,2.194,2.194,0,0,1,.605-.608,1.076,1.076,0,0,1,1.4,1.568,8.083,8.083,0,0,1-3.153,2.72,7.435,7.435,0,0,1-2.867.608q-2.915.1-5.829,0a8.075,8.075,0,0,1-4.268-1.312,6.981,6.981,0,0,1-2.962-4.831A12.327,12.327,0,0,1,2.1,14.45c0-1.6-.064-3.232.032-4.831A7.843,7.843,0,0,1,4.586,3.988,7.241,7.241,0,0,1,8.918,2.164a29.74,29.74,0,0,1,6.084,0,7.427,7.427,0,0,1,4.937,2.272A6.192,6.192,0,0,1,21.6,8.5a12.137,12.137,0,0,1-.159,3.392,6.631,6.631,0,0,1-4.587,4.831,9.58,9.58,0,0,1-3.153.512Z" transform="translate(-2.081 -1.844)" fill="#f23f44"/>
  <path id="Path_307" data-name="Path 307" d="M147.119,12.452c-.032,1.28.032,2.592-.127,3.871a7.022,7.022,0,0,1-6.5,6.463,22.237,22.237,0,0,1-7.135-.16,6.883,6.883,0,0,1-5.574-5.855,15.363,15.363,0,0,1-.223-2.432V10.276a9.919,9.919,0,0,1,.764-4.063,6.935,6.935,0,0,1,5.32-4.127,10.635,10.635,0,0,1,2.261-.224c1.434.032,2.867-.064,4.269.064a7.173,7.173,0,0,1,6.817,6.527A28.288,28.288,0,0,1,147.119,12.452Zm-17.36,0c.032,1.184-.032,2.336.1,3.52a4.951,4.951,0,0,0,4.746,4.671,31.337,31.337,0,0,0,5.479,0,4.973,4.973,0,0,0,4.778-4.767,49.56,49.56,0,0,0,0-6.879,4.915,4.915,0,0,0-4.714-4.767,32.428,32.428,0,0,0-5.574,0,5.03,5.03,0,0,0-4.714,4.735A31.594,31.594,0,0,0,129.76,12.452Z" transform="translate(-67.339 -1.766)" fill="#f23f44"/>
  <path id="Path_308" data-name="Path 308" d="M52.266,12.629a28.412,28.412,0,0,0,.127,3.679,4.842,4.842,0,0,0,4.682,4.511,32.8,32.8,0,0,0,5.606,0,4.672,4.672,0,0,0,3.982-2.464A1.081,1.081,0,0,1,68.1,18a1.038,1.038,0,0,1,.478,1.376A6.336,6.336,0,0,1,65.612,22.2a8.871,8.871,0,0,1-3.727.9,34.879,34.879,0,0,1-4.842-.064c-3.058-.32-5.319-1.728-6.4-4.735A9.988,9.988,0,0,1,50.1,14.8c0-1.7-.032-3.424.032-5.119a7.689,7.689,0,0,1,2.421-5.631A7.6,7.6,0,0,1,57.139,2.2a27.934,27.934,0,0,1,5.893.064,7.246,7.246,0,0,1,5.16,2.912A1.081,1.081,0,0,1,68,6.806a1.1,1.1,0,0,1-1.593-.352,4.391,4.391,0,0,0-3.185-1.92,20.789,20.789,0,0,0-6.753.032A4.824,4.824,0,0,0,52.393,8.95,28.02,28.02,0,0,0,52.266,12.629Z" transform="translate(-27.049 -1.879)" fill="#f23f44"/>
  <path id="Path_309" data-name="Path 309" d="M98.5,11.522V20a2.956,2.956,0,0,0,.032.512.245.245,0,0,0,.319.224c.191,0,.255-.1.287-.256a3.911,3.911,0,0,0,.032-.608V10.178a8.633,8.633,0,0,1,1.37-4.991,7.812,7.812,0,0,1,5.8-3.424,22.4,22.4,0,0,1,2.548-.064,1.083,1.083,0,0,1,1.179,1.088,1.118,1.118,0,0,1-1.147,1.12c-.956.032-1.879.032-2.8.128a5.524,5.524,0,0,0-4.523,4.255,8.645,8.645,0,0,0-.191,2.016v9.727a2.8,2.8,0,0,1-1.051,2.336,2.482,2.482,0,0,1-3.982-1.632,6.257,6.257,0,0,1-.064-.8V2.819a1.112,1.112,0,0,1,1.083-1.152A1.127,1.127,0,0,1,98.5,2.851Z" transform="translate(-51.081 -1.667)" fill="#f23f44"/>
</svg>
