<svg xmlns="http://www.w3.org/2000/svg" width="71.097" height="73.546" viewBox="0 0 71.097 73.546">
  <g id="people" transform="translate(-8.527 0)">
    <g id="Group_244" data-name="Group 244" transform="translate(8.527 0)">
      <g id="Group_243" data-name="Group 243">
        <path id="Path_481" data-name="Path 481" d="M224,5.768l1.585-1.585V14.708a1.226,1.226,0,1,0,2.452,0V4.183l1.585,1.585a1.226,1.226,0,1,0,1.733-1.733L227.678.358a1.23,1.23,0,0,0-1.735,0l-3.676,3.676A1.226,1.226,0,0,0,224,5.768Z" transform="translate(-191.262 0)" fill="#f5fbff"/>
        <path id="Path_482" data-name="Path 482" d="M394.667,99.635l1.585-1.585v10.525a1.226,1.226,0,1,0,2.452,0V98.05l1.585,1.585a1.226,1.226,0,1,0,1.733-1.733l-3.677-3.677a1.23,1.23,0,0,0-1.735,0L392.933,97.9a1.226,1.226,0,0,0,1.733,1.733Z" transform="translate(-337.413 -80.383)" fill="#f5fbff"/>
        <path id="Path_483" data-name="Path 483" d="M53.334,99.635l1.585-1.585v10.525a1.226,1.226,0,1,0,2.452,0V98.05l1.585,1.585A1.226,1.226,0,0,0,60.689,97.9l-3.677-3.676a1.23,1.23,0,0,0-1.735,0L51.6,97.9a1.226,1.226,0,0,0,1.733,1.733Z" transform="translate(-45.112 -80.383)" fill="#f5fbff"/>
        <path id="Path_484" data-name="Path 484" d="M74.372,187.812a8.572,8.572,0,0,0-4.555-15.839c-.123,0-.242.013-.363.018a8.628,8.628,0,0,0-8.217-6.147c-.122,0-.242.012-.364.017a8.628,8.628,0,0,0-8.217-6.146c-.122,0-.242.012-.364.017a8.566,8.566,0,0,0-16.433,0c-.121-.005-.241-.017-.364-.017a8.628,8.628,0,0,0-8.217,6.146c-.121-.005-.241-.017-.364-.017a8.627,8.627,0,0,0-8.217,6.147c-.121-.005-.241-.018-.363-.018a8.572,8.572,0,0,0-4.555,15.839,9.811,9.811,0,0,0-5.252,8.677v6.129a2.454,2.454,0,0,0,2.452,2.452H77.172a2.455,2.455,0,0,0,2.452-2.452v-6.129A9.812,9.812,0,0,0,74.372,187.812Zm-6.826-12.94a6.1,6.1,0,0,1,.626-.195c.168-.047.331-.105.506-.138a6.145,6.145,0,1,1-4.871,4.843c.022-.114.062-.221.09-.333a6.105,6.105,0,0,1,.241-.774c.045-.113.1-.22.155-.33a6.12,6.12,0,0,1,.375-.689c.062-.1.131-.191.2-.285a6.157,6.157,0,0,1,.507-.614c.077-.082.155-.161.237-.238a6.192,6.192,0,0,1,.611-.5c.1-.07.19-.142.29-.206a6.123,6.123,0,0,1,.656-.357C67.294,174.991,67.416,174.923,67.546,174.872Zm-8.263-6.248c.175-.058.358-.1.54-.141a6,6,0,0,1,1.413-.187,6.168,6.168,0,0,1,5.8,4.142c-.043.014-.081.038-.123.053a8.543,8.543,0,0,0-.957.412c-.068.034-.138.063-.205.1a8.567,8.567,0,0,0-.885.559c-.119.084-.235.171-.349.261a8.658,8.658,0,0,0-.665.58c-.121.117-.234.24-.347.364q-.25.273-.477.566c-.088.114-.177.227-.259.346a8.552,8.552,0,0,0-.531.872c-.054.1-.1.208-.151.313a8.519,8.519,0,0,0-.353.851c-.027.078-.06.152-.085.231a8.5,8.5,0,0,0-.269,1.114c-.016.092-.029.185-.043.278a8.569,8.569,0,0,0-.1,1.217,8.571,8.571,0,0,0-.1-1.217c-.013-.093-.026-.185-.043-.277a8.49,8.49,0,0,0-.27-1.115c-.025-.078-.057-.153-.085-.231a8.537,8.537,0,0,0-.353-.851c-.05-.1-.1-.21-.151-.313a8.567,8.567,0,0,0-.532-.872c-.082-.118-.17-.231-.258-.345q-.226-.294-.477-.566c-.114-.124-.227-.247-.347-.364a8.655,8.655,0,0,0-.665-.58c-.114-.09-.23-.177-.349-.261a8.589,8.589,0,0,0-.885-.559c-.067-.036-.137-.065-.205-.1a8.516,8.516,0,0,0-.957-.412c-.04-.014-.076-.036-.116-.05.034-.1.079-.193.118-.29a6.04,6.04,0,0,1,.242-.557c.03-.057.068-.109.1-.165a6.113,6.113,0,0,1,.419-.658l.009-.011a6.223,6.223,0,0,1,2.114-1.783c.045-.023.094-.039.139-.061A6.1,6.1,0,0,1,59.284,168.623ZM41.464,174.4a8.661,8.661,0,0,0-.665-.58c-.114-.09-.23-.177-.349-.261a8.584,8.584,0,0,0-.885-.559c-.067-.036-.137-.065-.205-.1a8.511,8.511,0,0,0-.957-.412c-.04-.014-.076-.036-.116-.05.034-.1.079-.193.118-.29a6.046,6.046,0,0,1,.242-.557c.03-.057.068-.109.1-.165a6.115,6.115,0,0,1,.419-.658l.009-.011a6.223,6.223,0,0,1,2.114-1.783c.045-.023.094-.039.139-.061a6.148,6.148,0,0,1,.7-.291c.175-.058.358-.1.54-.141.129-.031.254-.072.385-.095.046-.009.1-.013.149-.021a6.02,6.02,0,0,1,.866-.07h.032a6.022,6.022,0,0,1,.861.07c.049.008.1.012.149.021.131.023.257.064.385.095.182.043.365.083.54.141a6.147,6.147,0,0,1,.7.291c.046.022.095.038.139.061a6.224,6.224,0,0,1,2.114,1.783l.009.011a6.153,6.153,0,0,1,.419.658c.031.056.069.108.1.165a6.045,6.045,0,0,1,.242.557c.039.1.084.191.118.29-.04.014-.076.035-.116.05a8.543,8.543,0,0,0-.957.412c-.068.034-.138.063-.205.1a8.564,8.564,0,0,0-.885.559c-.119.084-.235.171-.349.261a8.66,8.66,0,0,0-.665.58c-.121.117-.234.24-.347.364q-.25.273-.477.566c-.088.114-.177.227-.259.346a8.551,8.551,0,0,0-.531.872c-.054.1-.1.208-.151.313a8.521,8.521,0,0,0-.353.851c-.027.078-.06.152-.085.231a8.5,8.5,0,0,0-.269,1.114c-.016.092-.029.185-.043.278a8.587,8.587,0,0,0-.1,1.217,8.572,8.572,0,0,0-.1-1.217c-.013-.093-.026-.185-.043-.277a8.489,8.489,0,0,0-.27-1.115c-.025-.078-.057-.153-.085-.231a8.541,8.541,0,0,0-.353-.851c-.05-.1-.1-.21-.151-.313a8.565,8.565,0,0,0-.532-.872c-.082-.119-.17-.231-.258-.345q-.226-.294-.477-.566C41.7,174.642,41.585,174.519,41.464,174.4Zm-2.255,11.024a6.115,6.115,0,0,1-9.725-6.043c.022-.114.062-.221.09-.333a6.108,6.108,0,0,1,.241-.774c.045-.113.1-.22.155-.33a6.115,6.115,0,0,1,.375-.689c.062-.1.131-.191.2-.285a6.154,6.154,0,0,1,.507-.614c.077-.082.155-.161.237-.238a6.189,6.189,0,0,1,.611-.5c.1-.07.19-.142.29-.206a6.126,6.126,0,0,1,.656-.357c.126-.06.247-.128.378-.179a6.1,6.1,0,0,1,.626-.195c.168-.047.331-.105.506-.138a6.117,6.117,0,0,1,1.129-.114h.021a6.116,6.116,0,0,1,1.129.114c.175.032.338.091.506.138a6.1,6.1,0,0,1,.626.195c.131.052.252.119.378.179a6.151,6.151,0,0,1,.656.357c.1.064.194.136.29.206a6.152,6.152,0,0,1,.611.5c.081.077.16.157.237.238a6.154,6.154,0,0,1,.507.614c.068.094.137.187.2.285a6.129,6.129,0,0,1,.375.689c.052.11.109.217.155.33a6.108,6.108,0,0,1,.241.774c.028.112.068.219.09.333A6.126,6.126,0,0,1,39.209,185.426Zm7.436-6.043c.022-.114.062-.221.09-.333a6.108,6.108,0,0,1,.241-.774c.045-.113.1-.22.155-.33a6.117,6.117,0,0,1,.375-.689c.062-.1.131-.191.2-.285a6.157,6.157,0,0,1,.507-.614c.077-.082.155-.161.237-.238a6.191,6.191,0,0,1,.611-.5c.1-.07.19-.142.29-.206a6.123,6.123,0,0,1,.656-.357c.126-.06.247-.128.378-.179a6.094,6.094,0,0,1,.626-.195c.168-.047.331-.105.506-.138a6.106,6.106,0,0,1,1.12-.113h.036a6.122,6.122,0,0,1,1.122.113c.175.032.338.091.506.138a6.1,6.1,0,0,1,.626.195c.131.052.252.119.378.179a6.151,6.151,0,0,1,.656.357c.1.064.194.136.29.206a6.152,6.152,0,0,1,.611.5c.081.077.16.157.237.238a6.155,6.155,0,0,1,.507.614c.068.094.137.187.2.285a6.128,6.128,0,0,1,.375.689c.052.11.109.217.155.33a6.108,6.108,0,0,1,.241.774c.028.112.068.219.09.333a6.129,6.129,0,1,1-12.021,0ZM50.7,162.495c.176-.059.361-.1.544-.143a6,6,0,0,1,1.41-.186,6.166,6.166,0,0,1,5.8,4.144h0c-.054.018-.1.045-.156.064-.119.044-.235.095-.352.144a8.531,8.531,0,0,0-3.757,3.036c-.035.05-.068.1-.1.153-.115.175-.23.35-.332.533q-.189.336-.349.69c-.047.1-.085.214-.127.321-.076.19-.147.383-.21.58-.016.051-.039.1-.054.149-.071,0-.143,0-.215,0-.048,0-.094-.007-.142-.007s-.094.006-.142.007c-.072,0-.144,0-.215,0-.015-.051-.038-.1-.054-.149-.063-.2-.134-.39-.21-.58-.043-.107-.081-.216-.127-.321q-.159-.354-.349-.691c-.1-.183-.216-.358-.332-.532-.034-.051-.067-.1-.1-.153a8.531,8.531,0,0,0-3.756-3.035c-.117-.049-.233-.1-.353-.145-.051-.018-.1-.044-.149-.061.032-.1.076-.185.113-.278a6.075,6.075,0,0,1,.248-.57c.029-.055.066-.105.1-.16a6.126,6.126,0,0,1,.421-.662l.01-.012a6.217,6.217,0,0,1,2.112-1.782c.048-.024.1-.042.147-.065A6.012,6.012,0,0,1,50.7,162.495Zm-6.627-6.458a6.126,6.126,0,0,1,5.8,4.144c-.054.018-.1.045-.156.064-.119.044-.235.095-.352.144a8.531,8.531,0,0,0-3.757,3.036c-.035.05-.068.1-.1.153-.115.175-.23.35-.332.533q-.189.336-.349.69c-.047.1-.085.214-.127.321-.076.19-.147.383-.21.58-.016.051-.039.1-.054.149-.117,0-.236-.007-.357-.007s-.239,0-.357.007c-.015-.051-.038-.1-.054-.149-.063-.2-.134-.39-.21-.58-.043-.107-.081-.216-.127-.321q-.159-.354-.349-.691c-.1-.183-.216-.358-.332-.532-.034-.051-.067-.1-.1-.153a8.531,8.531,0,0,0-3.756-3.035c-.117-.049-.233-.1-.353-.145-.053-.019-.1-.046-.156-.064A6.125,6.125,0,0,1,44.076,156.037Zm-8.581,6.129a6,6,0,0,1,1.41.186c.183.043.368.084.544.143a6.123,6.123,0,0,1,.688.288c.048.023.1.041.147.065a6.219,6.219,0,0,1,2.112,1.782l.01.012a6.147,6.147,0,0,1,.421.662c.03.054.067.1.1.16a6.136,6.136,0,0,1,.248.57c.037.093.08.183.113.278-.051.018-.1.043-.149.061-.119.044-.235.095-.352.144a8.531,8.531,0,0,0-3.757,3.036c-.035.05-.068.1-.1.153-.115.175-.23.35-.332.533q-.189.336-.349.69c-.047.1-.085.214-.127.321-.076.19-.147.383-.21.58-.016.051-.039.1-.054.149-.117,0-.236-.007-.357-.007s-.239,0-.357.007c-.015-.051-.038-.1-.054-.149-.063-.2-.134-.39-.21-.58-.043-.107-.081-.216-.127-.321q-.159-.354-.349-.691c-.1-.183-.216-.358-.332-.532-.034-.051-.067-.1-.1-.153a8.531,8.531,0,0,0-3.756-3.035c-.117-.049-.233-.1-.353-.145-.053-.019-.1-.046-.156-.064A6.165,6.165,0,0,1,35.495,162.166ZM21.118,172.437a6.166,6.166,0,0,1,5.8-4.142,6,6,0,0,1,1.406.185c.185.043.371.084.549.144a6.132,6.132,0,0,1,.677.283c.052.025.108.044.159.07a6.215,6.215,0,0,1,2.1,1.766c.008.01.017.019.025.03a6.14,6.14,0,0,1,.409.643c.034.061.075.117.108.179.093.177.164.365.239.551.039.1.085.193.119.294-.04.014-.076.035-.116.05a8.54,8.54,0,0,0-.957.412c-.068.034-.138.063-.205.1a8.579,8.579,0,0,0-.885.559c-.119.084-.235.171-.349.261a8.657,8.657,0,0,0-.665.58c-.121.117-.234.24-.347.364q-.25.273-.477.566c-.088.114-.177.227-.259.346a8.552,8.552,0,0,0-.531.872c-.054.1-.1.208-.151.313a8.516,8.516,0,0,0-.353.851c-.027.078-.06.152-.085.231a8.5,8.5,0,0,0-.269,1.114c-.016.092-.029.185-.043.278a8.565,8.565,0,0,0-.1,1.217,8.571,8.571,0,0,0-.1-1.217c-.013-.093-.026-.185-.043-.277a8.491,8.491,0,0,0-.27-1.115c-.025-.078-.057-.153-.085-.231a8.536,8.536,0,0,0-.353-.851c-.05-.1-.1-.21-.151-.313a8.565,8.565,0,0,0-.532-.872c-.082-.118-.17-.231-.258-.345q-.226-.294-.477-.566c-.114-.124-.227-.247-.347-.364a8.663,8.663,0,0,0-.665-.58c-.114-.09-.23-.177-.349-.261A8.586,8.586,0,0,0,22.4,173c-.067-.036-.137-.065-.205-.1a8.512,8.512,0,0,0-.957-.412c-.042-.015-.08-.039-.123-.053ZM12.2,180.553a6.089,6.089,0,0,1,7.268-6.014c.175.032.338.091.506.138a6.094,6.094,0,0,1,.626.195c.131.052.252.119.378.179a6.15,6.15,0,0,1,.656.357c.1.064.194.136.29.206a6.156,6.156,0,0,1,.611.5c.081.077.16.157.237.238a6.156,6.156,0,0,1,.507.614c.068.094.137.187.2.285a6.13,6.13,0,0,1,.375.689c.052.11.109.217.155.33a6.108,6.108,0,0,1,.241.774c.028.112.068.219.09.333a6.127,6.127,0,1,1-12.14,1.17Zm13.484,22.065H10.979v-6.129a7.355,7.355,0,1,1,14.71,0Zm-2.8-14.806a8.608,8.608,0,0,0,3.669-4.823c.12,0,.234.016.357.016s.238-.012.357-.016a8.608,8.608,0,0,0,3.669,4.823,9.869,9.869,0,0,0-4.026,3.94A9.869,9.869,0,0,0,22.888,187.812ZM42.85,202.618H28.14v-6.129a7.355,7.355,0,1,1,14.71,0v6.129Zm-2.8-14.806a8.608,8.608,0,0,0,3.669-4.823c.12,0,.234.016.357.016s.238-.011.357-.016a8.607,8.607,0,0,0,3.669,4.823,9.869,9.869,0,0,0-4.026,3.94A9.87,9.87,0,0,0,40.05,187.812Zm19.961,14.806H45.3v-6.129a7.355,7.355,0,1,1,14.71,0Zm-2.8-14.806a8.608,8.608,0,0,0,3.669-4.823c.12,0,.234.016.357.016s.238-.011.357-.016a8.607,8.607,0,0,0,3.669,4.823,9.869,9.869,0,0,0-4.026,3.94A9.87,9.87,0,0,0,57.211,187.812Zm19.961,14.806H62.462v-6.129a7.355,7.355,0,0,1,14.71,0Z" transform="translate(-8.527 -131.523)" fill="#f5fbff"/>
      </g>
    </g>
  </g>
</svg>
