<svg id="platf1" xmlns="http://www.w3.org/2000/svg" width="42.408" height="48.197" viewBox="0 0 42.408 48.197">
  <g id="Group_240" data-name="Group 240" transform="translate(0)">
    <g id="Group_239" data-name="Group 239">
      <path id="Path_474" data-name="Path 474" d="M72.657,3.352a2.41,2.41,0,0,0-1.911-.942H64.8v-.8A1.608,1.608,0,0,0,63.2,0H40.706A1.608,1.608,0,0,0,39.1,1.607v.8H33.157a2.41,2.41,0,0,0-2.328,3.031L33.271,14.6a7.678,7.678,0,0,0,1.406,2.844,6.685,6.685,0,0,0,4.7,2.6,10.452,10.452,0,0,0,9.357,8.028v5.664H47.132a.8.8,0,0,0-.8.8v2.41h-.8a4.023,4.023,0,0,0-3.935,3.213H39.1a1.608,1.608,0,0,0-1.607,1.607v4.82A1.608,1.608,0,0,0,39.1,48.2H64.8a1.608,1.608,0,0,0,1.607-1.607v-4.82A1.608,1.608,0,0,0,64.8,40.164H62.314a4.023,4.023,0,0,0-3.935-3.213h-.8v-2.41a.8.8,0,0,0-.8-.8H55.165V28.074a10.451,10.451,0,0,0,9.357-8.028,6.686,6.686,0,0,0,4.7-2.6A7.679,7.679,0,0,0,70.633,14.6l2.442-9.157A2.411,2.411,0,0,0,72.657,3.352ZM35.931,16.438a6.08,6.08,0,0,1-1.108-2.254L32.382,5.026a.8.8,0,0,1,.776-1.01H39.1V17.672c0,.249.02.493.037.737A5.061,5.061,0,0,1,35.931,16.438ZM64.8,41.771v4.82H39.1v-4.82Zm-6.426-3.213a2.414,2.414,0,0,1,2.272,1.607h-17.4a2.414,2.414,0,0,1,2.272-1.607Zm-2.41-3.213v1.607H47.936V35.345Zm-5.623-1.607V28.115h3.213v5.623ZM63.2,17.672a8.846,8.846,0,0,1-8.836,8.836h-4.82a8.846,8.846,0,0,1-8.836-8.836V1.607H63.2V17.672ZM71.522,5.026,69.08,14.184a6.079,6.079,0,0,1-1.108,2.254,5.061,5.061,0,0,1-3.205,1.972c.017-.245.037-.488.037-.737V4.016h5.942a.8.8,0,0,1,.776,1.01Z" transform="translate(-30.748)" fill="#2a5cfd"/>
      <path id="Path_475" data-name="Path 475" d="M145.87,462.408h19.279a.8.8,0,0,0,0-1.607H145.87a.8.8,0,0,0,0,1.607Z" transform="translate(-134.306 -417.423)" fill="#2a5cfd"/>
    </g>
  </g>
</svg>
