<svg id="platf3" xmlns="http://www.w3.org/2000/svg" width="48.206" height="48.199" viewBox="0 0 48.206 48.199">
  <g id="Group_238" data-name="Group 238" transform="translate(0 0)">
    <g id="Group_237" data-name="Group 237">
      <path id="Path_466" data-name="Path 466" d="M47.394,46.628H44.4a8.824,8.824,0,1,0-10.118,0H24.9V45.021a.8.8,0,1,0-1.607,0v1.607H2.53L13.707,33.356,15.5,35.147a.8.8,0,0,0,1.2-.078l7.5-9.755,7.388,6.649a.8.8,0,0,0,1.12-.043L46.591,17.312v1.2a.8.8,0,1,0,1.607,0V15.3l0-.01a.8.8,0,0,0-.044-.219.851.851,0,0,0-.019-.088.828.828,0,0,0-.06-.089.8.8,0,0,0-.118-.168l-.006-.009a.757.757,0,0,0-.1-.06.509.509,0,0,0-.333-.135.761.761,0,0,0-.125-.025H44.181a.8.8,0,1,0,0,1.607h1.342L32.088,30.245,24.9,23.778V8.874h5.623v3.213a1.608,1.608,0,0,0,1.607,1.607H42.574a1.608,1.608,0,0,0,1.607-1.607V5.6a1.608,1.608,0,0,0-1.607-1.607h-4.82V1.582A1.578,1.578,0,0,0,36.148.037H24.9A1.578,1.578,0,0,0,23.3,1.582V23.863l-7.308,9.5L14.224,31.6a.792.792,0,0,0-.6-.235.8.8,0,0,0-.58.285L1.607,45.23V34.579H3.213a.8.8,0,1,0,0-1.607H1.607V31.366H3.213a.8.8,0,0,0,0-1.607H1.607V28.152H3.213a.8.8,0,1,0,0-1.607H1.607V24.939h2.41a.8.8,0,0,0,0-1.607H1.607V21.726H3.213a.8.8,0,1,0,0-1.607H1.607V18.513H3.213a.8.8,0,1,0,0-1.607H1.607V15.3H3.213a.8.8,0,1,0,0-1.607H1.607V12.087H3.213a.8.8,0,1,0,0-1.607H1.607V8.874H3.213a.8.8,0,0,0,0-1.607H1.607V2.78L3.449,4.622A.8.8,0,0,0,4.584,3.486L1.371.273A.8.8,0,0,0,0,.841V47.431c0,.012.006.022.007.033a.784.784,0,0,0,.034.166.8.8,0,0,0,.039.138.805.805,0,0,0,.08.118.788.788,0,0,0,.105.133c.009.008.012.019.021.027a.772.772,0,0,0,.127.073.765.765,0,0,0,.1.057.8.8,0,0,0,.292.059H39.316l.03,0,.022,0h8.026a.8.8,0,1,0,0-1.606ZM37.474,8.68c.009-.008.014-.018.023-.026a1.235,1.235,0,0,0,.167-.23.752.752,0,0,0,.036-.085.789.789,0,0,0,.044-.22c0-.017.01-.031.01-.048V5.6h4.82v6.488H33.5Zm-5.343,2.466V8.874h2.65Zm-7.23-9.5,11.246-.062V7.267h-4.82a.757.757,0,0,0-.147.03L24.9,7.329ZM36.358,45.978a7.23,7.23,0,1,1,7.929-1.287A7.24,7.24,0,0,1,36.358,45.978Z" transform="translate(0 -0.037)" fill="#2a5cfd"/>
      <path id="Path_467" data-name="Path 467" d="M249.074,316.577a.8.8,0,1,0-1.607,0v1.607a.8.8,0,0,0,1.607,0Z" transform="translate(-224.172 -286.052)" fill="#2a5cfd"/>
      <path id="Path_468" data-name="Path 468" d="M249.074,367.777a.8.8,0,1,0-1.607,0v1.607a.8.8,0,1,0,1.607,0Z" transform="translate(-224.172 -332.432)" fill="#2a5cfd"/>
      <path id="Path_469" data-name="Path 469" d="M248.27,418.174a.8.8,0,0,0-.8.8v1.607a.8.8,0,0,0,1.607,0v-1.607A.8.8,0,0,0,248.27,418.174Z" transform="translate(-224.172 -378.813)" fill="#2a5cfd"/>
      <path id="Path_470" data-name="Path 470" d="M69.07,249.115h1.607a.8.8,0,0,0,0-1.607H69.07a.8.8,0,1,0,0,1.607Z" transform="translate(-61.841 -224.212)" fill="#2a5cfd"/>
      <path id="Path_471" data-name="Path 471" d="M120.27,249.115h1.607a.8.8,0,1,0,0-1.607H120.27a.8.8,0,1,0,0,1.607Z" transform="translate(-108.221 -224.212)" fill="#2a5cfd"/>
      <path id="Path_472" data-name="Path 472" d="M171.47,249.115h1.607a.8.8,0,0,0,0-1.607H171.47a.8.8,0,0,0,0,1.607Z" transform="translate(-154.601 -224.212)" fill="#2a5cfd"/>
      <path id="Path_473" data-name="Path 473" d="M382.868,364.47l.107-.234a.8.8,0,0,0-1.461-.667l-.107.234a3.386,3.386,0,0,0-1.544,0,2.471,2.471,0,0,0-1.653,3.621,3.392,3.392,0,0,0,1.009,1.169l-.906,1.986a1.665,1.665,0,0,1-.269-.371.986.986,0,0,1-.062-.837.8.8,0,0,0-1.461-.667,2.567,2.567,0,0,0,.09,2.229,3.391,3.391,0,0,0,1.009,1.168l-.107.234a.8.8,0,1,0,1.461.667l.1-.225a3.555,3.555,0,0,0,.756.084,3.236,3.236,0,0,0,.792-.1,2.471,2.471,0,0,0,1.653-3.621,3.392,3.392,0,0,0-1.009-1.169l.906-1.986a1.663,1.663,0,0,1,.269.371.986.986,0,0,1,.062.837.8.8,0,0,0,1.461.667,2.567,2.567,0,0,0-.09-2.229A3.392,3.392,0,0,0,382.868,364.47Zm-3.286,1.4a.872.872,0,0,1,.673-.5,1.652,1.652,0,0,1,.457-.04l-.8,1.749a1.668,1.668,0,0,1-.269-.371A.872.872,0,0,1,379.582,365.866Zm1.323,4.842a.872.872,0,0,1-.673.5,1.67,1.67,0,0,1-.457.039l.8-1.749a1.669,1.669,0,0,1,.269.371h0A.872.872,0,0,1,380.9,370.708Z" transform="translate(-340.884 -328.924)" fill="#2a5cfd"/>
    </g>
  </g>
</svg>
