<svg id="platf2" xmlns="http://www.w3.org/2000/svg" width="48.66" height="48.66" viewBox="0 0 48.66 48.66">
  <g id="Group_233" data-name="Group 233" transform="translate(0)">
    <g id="Group_232" data-name="Group 232" transform="translate(0)">
      <path id="Path_459" data-name="Path 459" d="M7.3,307.2c-4.951,0-6.95,1.757-7.032,1.832a.81.81,0,0,0-.267.6v14.6a.81.81,0,0,0,.267.6c.082.075,2.081,1.831,7.032,1.831s6.95-1.757,7.032-1.831a.81.81,0,0,0,.267-.6v-14.6a.81.81,0,0,0-.267-.6C14.249,308.957,12.25,307.2,7.3,307.2Zm-4.5,2.3.029-.011c.17-.061.361-.12.563-.178l.165-.045c.171-.046.354-.09.547-.132.056-.012.108-.025.166-.036q.369-.074.79-.133c.057-.008.12-.014.179-.021.236-.029.484-.054.744-.073.089-.007.177-.013.269-.019.332-.019.677-.033,1.047-.033s.716.014,1.048.033c.092.005.181.012.271.019.259.02.508.044.743.073.059.007.122.013.18.021.28.039.543.083.789.133.059.012.114.025.171.037.191.041.372.085.542.131l.167.045c.2.058.391.117.56.177l.044.017c.117.042.217.084.318.126a12.681,12.681,0,0,1-4.833.809,12.691,12.691,0,0,1-4.832-.809C2.573,309.591,2.678,309.547,2.8,309.5Zm-1.18,1.533a13.9,13.9,0,0,0,5.677,1.03,13.9,13.9,0,0,0,5.677-1.03v3.043l-.023.014c-.071.043-.154.091-.252.143l-.052.026c-.09.046-.193.1-.305.146l-.09.04c-.134.058-.282.117-.446.177l-.1.036c-.15.052-.313.1-.487.154l-.113.033c-.2.056-.424.109-.659.159l-.165.033c-.226.044-.464.085-.718.121l-.1.015c-.28.037-.581.065-.9.088l-.226.014c-.331.019-.675.033-1.044.033s-.713-.014-1.044-.033l-.226-.014c-.315-.023-.617-.051-.9-.088l-.093-.014c-.257-.036-.5-.077-.725-.122l-.158-.031c-.238-.05-.461-.1-.666-.16l-.1-.029c-.184-.053-.356-.107-.514-.163l-.081-.028c-.171-.062-.327-.124-.466-.185l-.056-.025c-.135-.06-.258-.119-.362-.174h0c-.112-.059-.206-.113-.283-.16l-.005,0v-3.044Zm11.354,12.776a10.887,10.887,0,0,1-5.677,1.23,10.889,10.889,0,0,1-5.677-1.229v-3.044c.033.015.073.029.107.044.094.04.189.08.292.121.057.022.118.044.177.065.1.037.2.073.311.109.07.023.143.046.216.068.109.034.222.067.339.1.082.023.165.044.251.066q.181.046.374.088c.092.02.185.04.281.06.135.027.275.051.418.075.1.017.2.034.306.05.153.023.315.042.477.061.106.012.208.026.318.036.184.018.379.031.574.043.1.006.192.015.293.02.3.014.614.023.942.023s.64-.009.942-.023c.1,0,.194-.014.293-.02.2-.012.39-.025.574-.043.11-.011.212-.024.318-.036.162-.019.324-.038.477-.061.105-.016.2-.033.306-.05.143-.024.283-.049.418-.075.1-.019.189-.039.281-.06q.193-.043.374-.088c.086-.022.169-.043.251-.066.118-.032.23-.065.339-.1.073-.023.146-.045.216-.068.109-.036.211-.073.311-.109.06-.022.121-.043.177-.065.1-.04.2-.08.292-.121.034-.015.074-.029.107-.044Zm0-4.867-.023.014c-.071.043-.154.091-.252.143l-.052.026c-.09.046-.193.1-.305.146l-.09.04c-.134.058-.282.117-.446.177l-.1.036c-.15.052-.313.1-.487.154l-.113.033c-.2.056-.424.109-.659.159l-.165.033c-.226.044-.464.085-.718.121l-.1.015c-.28.037-.581.065-.9.088l-.226.014c-.331.019-.675.033-1.044.033s-.714-.014-1.045-.033l-.228-.014c-.314-.023-.616-.051-.895-.088l-.1-.016c-.253-.035-.49-.076-.715-.12l-.163-.032c-.235-.05-.456-.1-.659-.159l-.115-.034c-.174-.05-.338-.1-.488-.155l-.1-.035c-.164-.059-.313-.119-.447-.177l-.087-.039c-.116-.052-.222-.1-.314-.151l-.04-.02c-.1-.053-.184-.1-.255-.145l-.021-.013V315.9c.033.015.073.029.107.044.094.04.189.08.292.121.057.022.118.044.177.065.1.037.2.073.311.109.07.023.143.046.216.068.109.034.222.067.339.1.082.023.165.044.251.066.121.031.246.06.374.088.092.02.185.04.281.06.135.027.275.051.418.075.1.017.2.034.306.05.153.023.315.042.477.061.106.012.208.026.318.036.184.018.379.031.574.043.1.006.192.015.293.02.3.014.614.023.942.023s.64-.009.942-.023c.1,0,.194-.013.293-.02.2-.012.39-.025.574-.043.11-.011.212-.024.318-.036.162-.019.324-.038.477-.061.105-.016.2-.033.306-.05.143-.024.283-.049.418-.075.1-.019.189-.039.281-.06.129-.029.254-.058.374-.088.086-.022.169-.043.251-.066.118-.032.23-.065.339-.1.073-.023.146-.045.216-.068.109-.036.211-.073.311-.109.06-.022.121-.043.177-.065.1-.04.2-.08.292-.121.034-.015.074-.029.107-.044v3.042Z" transform="translate(0 -278.004)" fill="#2a5cfd"/>
      <path id="Path_460" data-name="Path 460" d="M372.731,104.231c-.082-.075-2.081-1.831-7.032-1.831s-6.95,1.757-7.032,1.831a.81.81,0,0,0-.267.6V138.9a.81.81,0,0,0,.267.6c.082.075,2.081,1.832,7.032,1.832s6.95-1.757,7.032-1.832a.81.81,0,0,0,.267-.6V104.833A.81.81,0,0,0,372.731,104.231Zm-11.53.471.029-.011c.17-.061.361-.12.563-.178l.165-.045c.171-.046.354-.09.547-.132.056-.012.108-.025.166-.036q.369-.074.79-.133c.057-.008.12-.014.179-.021.236-.029.484-.054.744-.073.089-.007.177-.013.269-.019.332-.02.677-.033,1.047-.033s.716.014,1.048.033l.271.019c.259.02.508.044.743.073.059.007.122.013.18.021.28.039.543.083.789.133.06.012.114.025.171.037.191.041.372.085.542.131l.167.045c.2.058.391.117.56.177l.044.017c.117.042.217.084.318.126a14.838,14.838,0,0,1-9.665,0C360.973,104.791,361.078,104.747,361.2,104.7Zm-1.18,1.533a16.158,16.158,0,0,0,11.354,0v3.043l-.023.014c-.071.043-.154.091-.252.143l-.052.026c-.09.046-.193.1-.305.146l-.09.04c-.134.058-.282.117-.446.177l-.1.036c-.15.052-.313.1-.487.154l-.113.033c-.2.056-.424.109-.659.159l-.165.033c-.226.044-.464.085-.718.121l-.1.015c-.28.037-.581.065-.9.088l-.226.014c-.331.019-.675.033-1.044.033s-.713-.014-1.044-.033l-.226-.014c-.315-.023-.617-.051-.9-.088l-.093-.014c-.257-.036-.5-.077-.725-.122l-.158-.031c-.238-.05-.461-.1-.666-.16l-.1-.029c-.184-.053-.356-.107-.514-.163l-.081-.028c-.171-.062-.327-.124-.466-.185l-.056-.025c-.135-.06-.258-.119-.362-.174h0c-.112-.059-.206-.113-.283-.16l-.005,0v-3.044Zm0,4.867c.033.015.073.029.107.044.094.04.189.08.292.121.057.022.118.044.177.065.1.037.2.073.311.109.07.023.143.046.216.068.109.034.222.067.339.1.082.023.165.044.251.066q.181.046.374.088c.092.02.185.04.281.06.135.027.275.051.418.075.1.017.2.034.306.05.153.023.315.042.477.06.106.012.208.026.318.036.184.018.379.031.574.043.1.006.192.015.293.02.3.014.614.023.942.023s.64-.009.942-.023c.1,0,.194-.013.293-.02.2-.012.39-.025.574-.043.11-.011.212-.024.318-.036.162-.019.324-.038.477-.06.105-.016.2-.033.306-.05.143-.024.283-.049.418-.075.1-.019.189-.039.281-.06q.193-.043.374-.088c.086-.022.169-.043.251-.066.118-.032.23-.065.339-.1.073-.023.146-.045.216-.068.109-.036.211-.073.311-.109.06-.022.121-.043.177-.065.1-.04.2-.08.292-.121.034-.015.074-.03.107-.044v3.042l-.023.014c-.071.043-.154.091-.252.143l-.052.026c-.09.046-.193.1-.305.146l-.09.04c-.134.058-.282.117-.446.177l-.1.036c-.15.052-.313.1-.487.154l-.113.033c-.2.056-.424.109-.659.159l-.165.033c-.225.044-.464.085-.718.121l-.1.015c-.28.037-.581.065-.9.088l-.226.014c-.331.019-.675.033-1.044.033s-.714-.014-1.045-.033l-.228-.014c-.314-.023-.616-.051-.895-.088l-.1-.016c-.253-.035-.49-.076-.715-.12l-.163-.032c-.235-.05-.456-.1-.659-.159l-.115-.034c-.174-.05-.338-.1-.488-.155l-.1-.035c-.164-.06-.313-.119-.447-.177l-.087-.039c-.116-.052-.222-.1-.314-.151l-.04-.02c-.1-.053-.184-.1-.255-.145l-.021-.013V111.1Zm0,4.866c.033.015.073.029.107.044.094.04.189.08.292.121.057.022.118.044.177.065.1.037.2.073.311.109.07.023.143.046.216.068.109.034.222.067.339.1.082.023.165.044.251.066.121.031.246.06.374.088.092.02.185.04.281.06.135.027.275.051.418.075.1.017.2.034.306.05.153.023.315.042.477.06.106.012.208.026.318.036.184.018.379.031.574.043.1.006.192.015.293.02.3.014.614.023.942.023s.64-.009.942-.023c.1,0,.194-.013.293-.02.2-.012.39-.025.574-.043.11-.011.212-.024.318-.036.162-.019.324-.038.477-.06.105-.015.2-.033.306-.05.143-.024.283-.049.418-.075.1-.019.189-.039.281-.06.129-.029.254-.058.374-.088.086-.022.169-.043.251-.066.118-.032.23-.065.339-.1.073-.023.146-.045.216-.068.109-.036.211-.073.311-.109.06-.022.121-.043.177-.065.1-.04.2-.08.292-.121.034-.015.074-.03.107-.044v3.042l-.023.014c-.071.043-.154.091-.252.143l-.052.026c-.09.046-.193.1-.305.146l-.09.04c-.134.058-.282.117-.446.177l-.1.036c-.15.052-.313.1-.487.154l-.113.033c-.2.056-.424.109-.659.159l-.165.033c-.225.044-.464.085-.718.121l-.1.015c-.28.037-.581.065-.9.088l-.226.014c-.331.019-.675.033-1.044.033s-.714-.014-1.045-.033l-.228-.014c-.314-.023-.616-.051-.895-.088l-.1-.016c-.253-.035-.49-.076-.715-.12l-.163-.032c-.235-.05-.456-.1-.659-.159l-.115-.034c-.174-.05-.338-.1-.488-.155l-.1-.035c-.164-.059-.313-.119-.447-.177l-.087-.039c-.116-.052-.222-.1-.314-.151l-.04-.02c-.1-.053-.184-.1-.255-.145l-.021-.013v-3.042Zm0,4.866c.033.015.073.029.107.044.094.04.189.08.292.121.057.022.118.044.177.065.1.037.2.073.311.109.07.023.143.046.216.068.109.034.222.067.339.1.082.023.165.044.251.066q.181.046.374.088c.092.02.185.04.281.06.135.027.275.051.418.075.1.017.2.034.306.05.153.023.315.042.477.061.106.012.208.026.318.036.184.018.379.031.574.043.1.006.192.015.293.02.3.014.614.023.942.023s.64-.009.942-.023c.1,0,.194-.014.293-.02.2-.012.39-.025.574-.043.11-.011.212-.024.318-.036.162-.019.324-.038.477-.061.105-.015.2-.033.306-.05.143-.024.283-.049.418-.075.1-.019.189-.039.281-.06q.193-.043.374-.088c.086-.022.169-.043.251-.066.118-.032.23-.065.339-.1.073-.023.146-.045.216-.068.109-.036.211-.073.311-.109.06-.022.121-.043.177-.065.1-.04.2-.08.292-.121.034-.015.074-.03.107-.044v3.042l-.023.014c-.071.043-.154.091-.252.143l-.052.026c-.09.046-.193.1-.305.146l-.09.04c-.134.058-.282.117-.446.177l-.1.036c-.15.052-.313.1-.487.154l-.113.033c-.2.056-.424.109-.659.159l-.165.033c-.225.044-.464.085-.718.121l-.1.015c-.28.037-.581.065-.9.088l-.226.014c-.331.019-.675.033-1.044.033s-.714-.014-1.045-.033l-.228-.014c-.314-.023-.616-.051-.895-.088l-.1-.016c-.253-.035-.49-.076-.715-.12l-.163-.032c-.235-.05-.456-.1-.659-.159l-.115-.034c-.174-.05-.338-.1-.488-.155l-.1-.035c-.164-.059-.313-.119-.447-.177l-.087-.039c-.116-.052-.222-.1-.314-.151l-.04-.02c-.1-.053-.184-.1-.255-.145l-.021-.013v-3.042Zm0,4.866c.033.015.073.029.107.044.094.04.189.08.292.121.057.022.118.044.177.065.1.037.2.073.311.109.07.023.143.046.216.068.109.034.222.067.339.1.082.023.165.044.251.066q.181.046.374.088c.092.02.185.04.281.06.135.027.275.051.418.075.1.017.2.034.306.05.153.023.315.042.477.061.106.012.208.026.318.036.184.018.379.031.574.043.1.006.192.015.293.02.3.014.614.023.942.023s.64-.009.942-.023c.1,0,.194-.013.293-.02.2-.012.39-.025.574-.043.11-.011.212-.024.318-.036.162-.019.324-.038.477-.061.105-.015.2-.033.306-.05.143-.024.283-.049.418-.075.1-.019.189-.039.281-.06q.193-.043.374-.088c.086-.022.169-.043.251-.066.118-.032.23-.065.339-.1.073-.023.146-.045.216-.068.109-.036.211-.073.311-.109.06-.022.121-.043.177-.065.1-.04.2-.08.292-.121.034-.015.074-.03.107-.044v3.042l-.023.014c-.071.043-.154.091-.252.143l-.052.026c-.09.046-.193.1-.305.146l-.09.04c-.134.058-.282.117-.446.177l-.1.036c-.15.052-.313.1-.487.154l-.113.033c-.2.056-.424.109-.659.159l-.165.033c-.225.044-.464.085-.718.121l-.1.015c-.28.037-.581.065-.9.088l-.226.014c-.331.019-.675.033-1.044.033s-.714-.014-1.045-.033l-.228-.014c-.314-.023-.616-.051-.895-.088l-.1-.016c-.253-.035-.49-.076-.715-.12l-.163-.032c-.235-.05-.456-.1-.659-.159l-.115-.034c-.174-.05-.338-.1-.488-.155l-.1-.035c-.164-.059-.313-.119-.447-.177l-.087-.039c-.116-.052-.222-.1-.314-.151l-.04-.02c-.1-.053-.184-.1-.255-.145l-.021-.013V125.7Zm0,4.866c.033.015.073.029.107.044.094.04.189.08.292.121.057.022.118.044.177.065.1.037.2.073.311.109.07.023.143.046.216.068.109.034.222.067.339.1.082.023.165.044.251.066q.181.046.374.088c.092.02.185.04.281.06.135.027.275.051.418.075.1.017.2.034.306.05.153.023.315.042.477.061.106.012.208.026.318.036.184.018.379.031.574.043.1.006.192.015.293.02.3.014.614.023.942.023s.64-.009.942-.023c.1,0,.194-.014.293-.02.2-.012.39-.025.574-.043.11-.011.212-.024.318-.036.162-.019.324-.038.477-.061.105-.015.2-.033.306-.05.143-.024.283-.049.418-.075.1-.019.189-.039.281-.06q.193-.043.374-.088c.086-.022.169-.043.251-.066.118-.032.23-.065.339-.1.073-.023.146-.045.216-.068.109-.036.211-.073.311-.109.06-.022.121-.043.177-.065.1-.04.2-.08.292-.121.034-.015.074-.03.107-.044v3.042l-.023.014c-.071.043-.154.091-.252.143l-.052.026c-.09.046-.193.1-.305.146l-.09.04c-.134.058-.282.117-.446.177l-.1.036c-.15.052-.313.1-.487.154l-.113.033c-.2.056-.424.109-.659.159l-.165.033c-.225.044-.464.085-.718.121l-.1.015c-.28.037-.581.065-.9.088l-.226.014c-.331.019-.675.033-1.044.033s-.714-.014-1.045-.033l-.228-.014c-.314-.023-.616-.051-.895-.088l-.1-.016c-.253-.035-.49-.076-.715-.12l-.163-.032c-.235-.05-.456-.1-.659-.159l-.115-.034c-.174-.05-.338-.1-.488-.155l-.1-.035c-.164-.059-.313-.119-.447-.177l-.087-.039c-.116-.052-.222-.1-.314-.151l-.04-.02c-.1-.053-.184-.1-.255-.145l-.021-.013v-3.042Zm11.354,7.909a13.72,13.72,0,0,1-11.354,0v-3.044c.033.015.073.029.107.044.094.04.189.08.292.121.057.022.118.044.177.065.1.037.2.073.311.109.07.023.143.046.216.068.109.034.222.067.339.1.082.023.165.044.251.066q.181.046.374.088c.092.02.185.04.281.06.135.027.275.051.418.075.1.017.2.034.306.05.153.023.315.042.477.061.106.012.208.026.318.036.184.018.379.031.574.043.1.006.192.015.293.02.3.014.614.023.942.023s.64-.009.942-.023c.1,0,.194-.013.293-.02.2-.012.39-.025.574-.043.11-.011.212-.024.318-.036.162-.019.324-.038.477-.061.105-.015.2-.033.306-.05.143-.024.283-.049.418-.075.1-.019.189-.039.281-.06q.193-.043.374-.088c.086-.022.169-.043.251-.066.118-.032.23-.065.339-.1.073-.023.146-.045.216-.068.109-.036.211-.073.311-.109.06-.022.121-.043.177-.065.1-.04.2-.08.292-.121.034-.015.074-.029.107-.044Z" transform="translate(-324.338 -92.668)" fill="#2a5cfd"/>
      <path id="Path_461" data-name="Path 461" d="M186.5,204.8c-4.951,0-6.95,1.757-7.032,1.832a.81.81,0,0,0-.267.6v24.33a.81.81,0,0,0,.267.6c.082.075,2.081,1.831,7.032,1.831s6.95-1.757,7.032-1.831a.81.81,0,0,0,.267-.6v-24.33a.81.81,0,0,0-.267-.6C193.449,206.557,191.45,204.8,186.5,204.8Zm-4.5,2.3.029-.011c.17-.061.361-.12.563-.178l.165-.045c.171-.046.354-.09.547-.132.056-.012.108-.025.166-.036q.369-.074.79-.133c.057-.008.12-.014.179-.021.236-.029.484-.054.744-.073.089-.007.177-.013.269-.019.332-.019.677-.033,1.047-.033s.716.014,1.048.033l.271.019c.259.02.508.044.743.073.059.007.122.013.18.021.28.039.543.083.789.133.059.012.114.025.171.037.191.041.372.085.542.131l.167.045c.2.058.391.117.56.177l.044.017c.117.042.217.084.318.126a14.837,14.837,0,0,1-9.665,0C181.773,207.191,181.878,207.147,182,207.1Zm-1.18,1.533a16.158,16.158,0,0,0,11.354,0v3.043l-.023.014c-.071.043-.154.091-.252.143l-.052.026c-.09.046-.193.1-.305.146l-.09.04c-.134.058-.282.117-.446.177l-.1.036c-.15.052-.313.1-.487.154l-.113.033c-.2.056-.424.109-.659.159l-.165.033c-.226.044-.464.085-.718.121l-.1.015c-.28.037-.581.065-.9.088l-.226.014c-.331.019-.675.033-1.044.033s-.713-.014-1.044-.033l-.226-.014c-.315-.023-.617-.051-.9-.088l-.093-.014c-.257-.036-.5-.077-.725-.122l-.158-.031c-.238-.05-.461-.1-.666-.16l-.1-.029c-.184-.053-.356-.107-.514-.163l-.081-.028c-.171-.062-.327-.124-.466-.185l-.056-.025c-.135-.06-.258-.119-.362-.174h0c-.112-.059-.206-.113-.283-.16l-.005,0v-3.044Zm11.354,22.508a13.72,13.72,0,0,1-11.354,0V228.1c.033.015.073.029.107.044.094.04.189.08.292.121.057.022.118.044.177.065.1.037.2.073.311.109.07.023.143.046.216.068.109.034.222.067.339.1.082.023.165.044.251.066q.181.046.374.088c.092.02.185.04.281.06.135.027.275.051.418.075.1.017.2.034.306.05.153.023.315.042.477.061.106.012.208.026.318.036.184.018.379.031.574.043.1.006.192.015.293.02.3.014.614.023.942.023s.64-.009.942-.023c.1,0,.194-.013.293-.02.2-.012.39-.025.574-.043.11-.011.212-.024.318-.036.162-.019.324-.038.477-.061.105-.015.2-.033.306-.05.143-.024.283-.049.418-.075.1-.019.189-.039.281-.06q.193-.043.374-.088c.086-.022.169-.043.251-.066.118-.032.23-.065.339-.1.073-.023.146-.045.216-.068.109-.036.211-.073.311-.109.06-.022.121-.043.177-.065.1-.04.2-.08.292-.121.034-.015.074-.029.107-.044Zm0-4.867-.023.014c-.071.043-.154.091-.252.143l-.052.026c-.09.046-.193.1-.305.146l-.09.04c-.134.058-.282.117-.446.177l-.1.036c-.15.052-.313.1-.487.154l-.113.033c-.2.056-.424.109-.659.159l-.165.033c-.226.044-.464.085-.718.121l-.1.015c-.28.037-.581.065-.9.088l-.226.014c-.331.019-.675.033-1.044.033s-.714-.014-1.045-.033l-.228-.014c-.314-.023-.616-.051-.895-.088l-.1-.016c-.253-.035-.49-.076-.715-.12l-.163-.032c-.235-.05-.456-.1-.659-.159l-.115-.034c-.174-.05-.338-.1-.488-.155l-.1-.035c-.164-.059-.313-.119-.447-.177l-.087-.039c-.116-.052-.222-.1-.314-.151l-.04-.02c-.1-.053-.184-.1-.255-.145l-.021-.013v-3.042c.033.015.073.029.107.044.094.04.189.08.292.121.057.022.118.044.177.065.1.037.2.073.311.109.07.023.143.046.216.068.109.034.222.067.339.1.082.023.165.044.251.066q.181.046.374.088c.092.02.185.04.281.06.135.027.275.051.418.075.1.017.2.034.306.05.153.023.315.042.477.061.106.012.208.026.318.036.184.018.379.031.574.043.1.006.192.015.293.02.3.014.614.023.942.023s.64-.009.942-.023c.1,0,.194-.014.293-.02.2-.012.39-.025.574-.043.11-.011.212-.024.318-.036.162-.019.324-.038.477-.061.105-.015.2-.033.306-.05.143-.024.283-.049.418-.075.1-.019.189-.039.281-.06q.193-.043.374-.088c.086-.022.169-.043.251-.066.118-.032.23-.065.339-.1.073-.023.146-.045.216-.068.109-.036.211-.073.311-.109.06-.022.121-.043.177-.065.1-.04.2-.08.292-.121.034-.015.074-.029.107-.044v3.042Zm0-4.866-.023.014c-.071.043-.154.091-.252.143l-.052.026c-.09.046-.193.1-.305.146l-.09.04c-.134.058-.282.117-.446.177l-.1.036c-.15.052-.313.1-.487.154l-.113.033c-.2.056-.424.109-.659.159l-.165.033c-.226.044-.464.085-.718.121l-.1.015c-.28.037-.581.065-.9.088l-.226.014c-.331.019-.675.033-1.044.033s-.714-.014-1.045-.033l-.228-.014c-.314-.023-.616-.051-.895-.088l-.1-.016c-.253-.035-.49-.076-.715-.12l-.163-.032c-.235-.05-.456-.1-.659-.159l-.115-.034c-.174-.05-.338-.1-.488-.155l-.1-.035c-.164-.059-.313-.119-.447-.177l-.087-.039c-.116-.052-.222-.1-.314-.151l-.04-.02c-.1-.053-.184-.1-.255-.145l-.021-.013v-3.043c.033.015.073.029.107.044.094.04.189.08.292.121.057.022.118.044.177.065.1.037.2.073.311.109.07.023.143.046.216.068.109.034.222.067.339.1.082.023.165.044.251.066q.181.046.374.088c.092.02.185.04.281.06.135.027.275.051.418.075.1.017.2.034.306.05.153.023.315.042.477.061.106.012.208.026.318.036.184.018.379.031.574.043.1.006.192.015.293.02.3.014.614.023.942.023s.64-.009.942-.023c.1,0,.194-.014.293-.02.2-.012.39-.025.574-.043.11-.011.212-.024.318-.036.162-.019.324-.038.477-.061.105-.015.2-.033.306-.05.143-.024.283-.049.418-.075.1-.019.189-.039.281-.06q.193-.043.374-.088c.086-.022.169-.043.251-.066.118-.032.23-.065.339-.1.073-.023.146-.045.216-.068.109-.036.211-.073.311-.109.06-.022.121-.043.177-.065.1-.04.2-.08.292-.121.034-.015.074-.029.107-.044v3.042Zm0-4.866-.023.014c-.071.043-.154.091-.252.143l-.052.026c-.09.046-.193.1-.305.146l-.09.04c-.134.058-.282.117-.446.177l-.1.036c-.15.052-.313.1-.487.154l-.113.033c-.2.056-.424.109-.659.159l-.165.033c-.226.044-.464.085-.718.121l-.1.015c-.28.037-.581.065-.9.088l-.226.014c-.331.019-.675.033-1.044.033s-.714-.014-1.045-.033l-.228-.014c-.314-.023-.616-.051-.895-.088l-.1-.016c-.253-.035-.49-.076-.715-.12l-.163-.032c-.235-.05-.456-.1-.659-.159l-.115-.034c-.174-.05-.338-.1-.488-.155l-.1-.035c-.164-.059-.313-.119-.447-.177l-.087-.039c-.116-.052-.222-.1-.314-.151l-.04-.02c-.1-.053-.184-.1-.255-.145l-.021-.013V213.5c.033.015.073.029.107.044.094.04.189.08.292.121.057.022.118.044.177.065.1.037.2.073.311.109.07.023.143.046.216.068.109.034.222.067.339.1.082.023.165.044.251.066.121.031.246.06.374.088.092.02.185.04.281.06.135.027.275.051.418.075.1.017.2.034.306.05.153.023.315.042.477.061.106.012.208.026.318.036.184.018.379.031.574.043.1.006.192.015.293.02.3.014.614.023.942.023s.64-.009.942-.023c.1,0,.194-.013.293-.02.2-.012.39-.025.574-.043.11-.011.212-.024.318-.036.162-.019.324-.038.477-.061.105-.015.2-.033.306-.05.143-.024.283-.049.418-.075.1-.019.189-.039.281-.06.129-.029.254-.058.374-.088.086-.022.169-.043.251-.066.118-.032.23-.065.339-.1.073-.023.146-.045.216-.068.109-.036.211-.073.311-.109.06-.022.121-.043.177-.065.1-.04.2-.08.292-.121.034-.015.074-.029.107-.044v3.042Z" transform="translate(-162.169 -185.336)" fill="#2a5cfd"/>
      <path id="Path_462" data-name="Path 462" d="M69.078,27.574a.811.811,0,0,0,.811-.811v-14.6a.812.812,0,0,1,.811-.811H85.3v4.365l-.448-.224a.811.811,0,1,0-.725,1.451l1.622.811c.007,0,.015,0,.023.005a.762.762,0,0,0,.681,0c.007,0,.015,0,.022-.005l1.622-.811a.811.811,0,1,0-.725-1.451l-.448.224V2.433a.812.812,0,0,1,.811-.811h13.787a.812.812,0,0,1,.811.811V5.987l-.448-.224a.811.811,0,1,0-.726,1.451l1.622.811c.007,0,.015,0,.023.005a.761.761,0,0,0,.681,0c.007,0,.015,0,.022-.005l1.622-.811a.811.811,0,0,0-.725-1.451l-.448.224V2.433A2.436,2.436,0,0,0,101.518,0H87.731A2.436,2.436,0,0,0,85.3,2.433v7.3H70.7a2.436,2.436,0,0,0-2.433,2.433v14.6a.811.811,0,0,0,.811.811Z" transform="translate(-61.779)" fill="#2a5cfd"/>
    </g>
  </g>
</svg>
