<svg xmlns="http://www.w3.org/2000/svg" width="48.235" height="48.236" viewBox="0 0 48.235 48.236">
  <g id="platf5" transform="translate(-0.009)">
    <g id="Group_242" data-name="Group 242" transform="translate(0.009 0)">
      <g id="Group_241" data-name="Group 241" transform="translate(0 0)">
        <path id="Path_476" data-name="Path 476" d="M231.831,216.325l.236-.236v3.687a.8.8,0,0,0,1.608,0V216.09l.236.236a.8.8,0,0,0,1.137-1.137l-1.607-1.607a.807.807,0,0,0-1.138,0l-1.607,1.607a.8.8,0,0,0,1.137,1.137Z" transform="translate(-208.753 -193.247)" fill="#2a5cfd"/>
        <path id="Path_477" data-name="Path 477" d="M308.631,267.525l.236-.236v3.687a.8.8,0,1,0,1.608,0V267.29l.236.236a.8.8,0,0,0,1.137-1.137l-1.607-1.607a.807.807,0,0,0-1.138,0l-1.607,1.607a.8.8,0,0,0,1.137,1.137Z" transform="translate(-278.318 -239.624)" fill="#2a5cfd"/>
        <path id="Path_478" data-name="Path 478" d="M155.266,267.29v3.687a.8.8,0,1,0,1.608,0v-3.687l.236.236a.8.8,0,1,0,1.137-1.137l-1.607-1.607a.807.807,0,0,0-1.138,0l-1.607,1.607a.8.8,0,0,0,1.137,1.137Z" transform="translate(-139.188 -239.625)" fill="#2a5cfd"/>
        <path id="Path_479" data-name="Path 479" d="M47.44,46.627H44.224V39.392a2.414,2.414,0,0,0-2.412-2.412h-.8V18.319a4.41,4.41,0,0,0,5.627-4.25V9.647c0-.008,0-.014,0-.022a.792.792,0,0,0-.038-.236L43.97,1.638A2.412,2.412,0,0,0,41.685,0H6.567A2.411,2.411,0,0,0,4.283,1.638L1.659,9.389a.793.793,0,0,0-.038.236c0,.008,0,.014,0,.022v4.421a4.41,4.41,0,0,0,5.627,4.25V36.98h-.8a2.414,2.414,0,0,0-2.412,2.412v7.235H.813a.8.8,0,0,0,0,1.608h23.27l.03,0,.022,0h23.3a.8.8,0,0,0,0-1.608ZM45.028,14.068a2.8,2.8,0,0,1-4.855,1.925c-.045-.048-.084-.1-.126-.152a2.8,2.8,0,0,1-.249-.354c-.037-.062-.071-.125-.1-.19a2.792,2.792,0,0,1-.16-.413c-.018-.06-.042-.118-.056-.18a2.8,2.8,0,0,1-.079-.636V10.451h5.627v3.618ZM5.806,2.154a.8.8,0,0,1,.761-.546H41.685a.8.8,0,0,1,.761.546l2.264,6.689H3.542Zm6.262,16.164A4.393,4.393,0,0,0,16.891,16.6a4.411,4.411,0,0,0,7.235,0,4.411,4.411,0,0,0,7.235,0,4.393,4.393,0,0,0,4.823,1.716V36.98H32.628c-.065-.228-.133-.455-.216-.679a8.82,8.82,0,0,0-16.783.679h-3.56V18.319Zm-.835-2.325c-.045-.048-.084-.1-.126-.152a2.8,2.8,0,0,1-.249-.354c-.037-.062-.071-.125-.1-.19a2.792,2.792,0,0,1-.16-.413c-.018-.06-.042-.118-.056-.18a2.8,2.8,0,0,1-.079-.636V10.451h5.627v3.618a2.8,2.8,0,0,1-4.855,1.925ZM17.7,14.068V10.451h5.627v3.618a2.814,2.814,0,1,1-5.627,0Zm7.235,0V10.451h5.627v3.618a2.814,2.814,0,1,1-5.627,0Zm8.724,2.483a2.812,2.812,0,0,1-1.489-2.483V10.451h5.627v3.618a2.8,2.8,0,0,1-.079.636c-.015.062-.038.12-.056.181a2.791,2.791,0,0,1-.159.412c-.032.065-.067.128-.1.19a2.808,2.808,0,0,1-.249.354c-.042.051-.081.1-.126.153a2.775,2.775,0,0,1-3.366.558Zm4.139.926c.013-.011.024-.024.036-.034a4.466,4.466,0,0,0,.338-.319c.043-.045.084-.091.125-.138.08-.091.156-.185.229-.283.024-.032.052-.061.075-.093.023.033.052.061.075.093q.109.146.229.283c.041.047.082.093.125.138a4.484,4.484,0,0,0,.338.319c.013.011.023.024.036.034v19.5H37.793v-19.5Zm-27.333,0v19.5H8.852v-19.5c.013-.011.024-.024.036-.034a4.466,4.466,0,0,0,.338-.319c.043-.045.084-.091.125-.138.08-.091.156-.185.229-.283.024-.032.052-.061.075-.093.023.033.052.061.075.093q.109.146.229.283c.041.047.082.093.125.138a4.485,4.485,0,0,0,.338.319C10.436,17.454,10.447,17.467,10.46,17.478Zm-5.746-.926a2.812,2.812,0,0,1-1.489-2.483V10.451H8.852v3.618a2.8,2.8,0,0,1-.079.636c-.015.062-.038.12-.056.181a2.791,2.791,0,0,1-.159.412c-.032.065-.067.128-.1.19a2.808,2.808,0,0,1-.249.354c-.042.051-.081.1-.126.153a2.775,2.775,0,0,1-3.366.558Zm.923,30.075V39.392a.8.8,0,0,1,.8-.8h8.885a8.809,8.809,0,0,0,3.718,8.039Zm15.486-.651a7.19,7.19,0,1,1,5.541.214A7.235,7.235,0,0,1,21.123,45.976Zm21.494.651H29.176a8.745,8.745,0,0,0,3.752-8.039h8.885a.8.8,0,0,1,.8.8v7.235Z" transform="translate(-0.009 0)" fill="#2a5cfd"/>
        <path id="Path_480" data-name="Path 480" d="M221.014,364.411l.107-.235a.8.8,0,1,0-1.463-.667l-.107.234a2.647,2.647,0,0,0-2.189,4.8l-.908,1.989a1.142,1.142,0,0,1-.33-1.21.8.8,0,1,0-1.463-.667,2.856,2.856,0,0,0,1.1,3.4l-.107.235a.8.8,0,0,0,1.463.667l.1-.226a3.536,3.536,0,0,0,.746.081,2.717,2.717,0,0,0,2.548-1.487,2.856,2.856,0,0,0-1.1-3.4l.908-1.989a1.142,1.142,0,0,1,.33,1.21.8.8,0,0,0,1.463.667A2.856,2.856,0,0,0,221.014,364.411Zm-3.29,1.4a1.144,1.144,0,0,1,1.132-.544l-.8,1.754A1.143,1.143,0,0,1,217.725,365.808Zm1.325,4.845a1.143,1.143,0,0,1-1.132.543l.8-1.754A1.142,1.142,0,0,1,219.05,370.652Z" transform="translate(-194.27 -328.836)" fill="#2a5cfd"/>
      </g>
    </g>
  </g>
</svg>
