<svg xmlns="http://www.w3.org/2000/svg" width="48.094" height="48.094" viewBox="0 0 48.094 48.094">
  <g id="platf6" transform="translate(-0.17 -0.17)">
    <g id="_012---Global-Family" data-name="012---Global-Family" transform="translate(0.17 0.17)">
      <path id="Shape" d="M45.242,12.577a7.223,7.223,0,0,0-9.576-9.5,24.032,24.032,0,0,0-18.034-2h0A23.911,23.911,0,0,0,3.522,11.962a.8.8,0,0,0-.1.314,7.747,7.747,0,0,0-.95,1.654l-.06.129A24.194,24.194,0,0,0,.17,24.213a23.94,23.94,0,0,0,.967,6.732,7.215,7.215,0,0,0,4.885,8.98,24,24,0,0,0,31.238,4.48,7.226,7.226,0,0,0,8.994-10.584A23.937,23.937,0,0,0,45.242,12.577Zm-6.625-2.094a1.608,1.608,0,1,1,1.608-1.608A1.608,1.608,0,0,1,38.618,10.483Zm-1.624,1.152a3.118,3.118,0,0,0,3.247,0,4.07,4.07,0,0,1,2.125,2.229,5.592,5.592,0,0,1-7.5,0,4.07,4.07,0,0,1,2.125-2.229Zm7.251-1.956a5.585,5.585,0,0,1-.76,2.811,5.584,5.584,0,0,0-2.071-2.058,3.175,3.175,0,0,0,.42-1.557,3.215,3.215,0,1,0-6.431,0,3.175,3.175,0,0,0,.42,1.557,5.584,5.584,0,0,0-2.071,2.058A5.624,5.624,0,1,1,44.244,9.679Zm-20.032-7.9a22.46,22.46,0,0,1,9.859,2.282,7.228,7.228,0,0,0-2.634,4.767,4.136,4.136,0,0,0-2.159-.312,6.112,6.112,0,0,0-1.557.511,6.027,6.027,0,0,1-.979.363,1.283,1.283,0,0,1-.944-.149c-.118-.085-.124-.152-.127-.177-.018-.209.244-.467.645-.837a3.785,3.785,0,0,0,1.13-1.473,2.574,2.574,0,0,0-1.183-2.945,4.735,4.735,0,0,0-3.195-.5,8.515,8.515,0,0,1-1.153.055,4.378,4.378,0,0,1-2.609-1.046A22.4,22.4,0,0,1,24.213,1.778Zm-6.67,1.017a5.928,5.928,0,0,0,4.3,2.173,9.814,9.814,0,0,0,1.375-.06,3.294,3.294,0,0,1,2.192.26,1.013,1.013,0,0,1,.522,1.05,2.635,2.635,0,0,1-.7.824,2.637,2.637,0,0,0-1.158,2.165,1.848,1.848,0,0,0,.79,1.338,2.9,2.9,0,0,0,2.252.407,7.288,7.288,0,0,0,1.249-.452,4.8,4.8,0,0,1,1.149-.394,3.061,3.061,0,0,1,1.94.522,7.187,7.187,0,0,0,1.391,3.391c-.067.04-.133.082-.2.122-.216.128-.425.252-.672.423a12.631,12.631,0,0,1-2.893,1.642,10.732,10.732,0,0,1-1.191.324A7.208,7.208,0,0,0,25.5,17.4a3.143,3.143,0,0,0-1.183,3.4c-.026-.009-.055-.019-.086-.033-.138-.056-.273-.121-.407-.184A2.648,2.648,0,0,0,19.7,22.9c0,1.907,1.416,3.019,2.553,3.912l.4.314a4.789,4.789,0,0,1,.675.765q-2.425-.61-4.851-1.2c-1.36-.329-2.735-.734-3.3-1.74a5.021,5.021,0,0,1-.431-1.442,5.33,5.33,0,0,0-.814-2.222,5.491,5.491,0,0,0-3.157-1.746l-.146-.042c-1.2-.358-1.866-.79-2.082-1.355A3.28,3.28,0,0,1,8.889,16a5.093,5.093,0,0,0,.434-3.042A2.685,2.685,0,0,0,7.881,11.14a3.312,3.312,0,0,0-1.707-.269A22.253,22.253,0,0,1,17.543,2.795ZM1.778,24.213a22.581,22.581,0,0,1,2.087-9.475l.06-.13a4.867,4.867,0,0,1,.961-1.563A1.616,1.616,0,0,1,5.4,12.7a2.261,2.261,0,0,1,1.783-.109,1.1,1.1,0,0,1,.584.771,3.828,3.828,0,0,1-.387,2.09,4.574,4.574,0,0,0-.332,3.272,4.448,4.448,0,0,0,3.133,2.326l.156.045a4.28,4.28,0,0,1,2.305,1.155,4.019,4.019,0,0,1,.531,1.581,6.384,6.384,0,0,0,.6,1.911c.878,1.573,2.692,2.125,4.322,2.519q2.626.638,5.252,1.3a1.679,1.679,0,0,0,1.083-.013,1.221,1.221,0,0,0,.765-.955c.184-1.219-1.5-2.682-1.524-2.7l-.424-.336c-1-.783-1.939-1.523-1.939-2.656a1.191,1.191,0,0,1,.7-1.107c.3-.127.551-.033,1.136.242.159.075.321.151.468.211A1.667,1.667,0,0,0,25.525,22a1.632,1.632,0,0,0,.394-1.393c-.132-1.072-.083-1.514.459-1.864a5.919,5.919,0,0,1,1.873-.651,12.024,12.024,0,0,0,1.371-.377,14.308,14.308,0,0,0,3.318-1.871c.161-.11.339-.215.521-.323.162-.1.334-.2.506-.311a7.211,7.211,0,0,0,10.309-1.04,22.419,22.419,0,0,1,.809,18.3,7.216,7.216,0,0,0-12.033,4.444c-.285-.284-.569-.569-.856-.862a13.621,13.621,0,0,0-3.778-2.532c-2.033-.974-3.817-.882-4.895.254a7.02,7.02,0,0,0-1.182,1.992c-.144.318-.284.632-.44.906a4.574,4.574,0,0,1-1.144,1.389,3.888,3.888,0,0,1-.673.375,3.965,3.965,0,0,0-1.308.873A3.743,3.743,0,0,0,18,41.067a3.991,3.991,0,0,1-.26.836A4.533,4.533,0,0,0,17.1,44.01a3.2,3.2,0,0,0,.477,1.622A22.38,22.38,0,0,1,8.48,40.2,7.23,7.23,0,1,0,2.244,28.722,22.462,22.462,0,0,1,1.778,24.213Zm6.294,9.582a1.608,1.608,0,1,1,1.608-1.608A1.608,1.608,0,0,1,8.072,33.795ZM6.448,34.946a3.118,3.118,0,0,0,3.247,0,4.07,4.07,0,0,1,2.125,2.229,5.592,5.592,0,0,1-7.5,0A4.07,4.07,0,0,1,6.448,34.946Zm1.623-7.583A5.617,5.617,0,0,1,12.939,35.8a5.584,5.584,0,0,0-2.071-2.058,3.175,3.175,0,0,0,.42-1.557,3.215,3.215,0,1,0-6.431,0,3.175,3.175,0,0,0,.42,1.557A5.584,5.584,0,0,0,3.2,35.8a5.617,5.617,0,0,1,4.867-8.437ZM24.213,46.656a22.121,22.121,0,0,1-3.386-.263,10.061,10.061,0,0,1-.9-.565A2.666,2.666,0,0,1,18.707,44a3.151,3.151,0,0,1,.459-1.363,5.259,5.259,0,0,0,.4-1.2,2.462,2.462,0,0,1,.407-1.052,2.652,2.652,0,0,1,.812-.5,5.212,5.212,0,0,0,.953-.547,6.123,6.123,0,0,0,1.563-1.866c.189-.332.353-.694.511-1.044a5.9,5.9,0,0,1,.885-1.55c.8-.846,2.387-.218,3.03.09a12.236,12.236,0,0,1,3.328,2.209c.686.7,1.367,1.381,2.08,2.034a7.237,7.237,0,0,0,2.6,4.257A22.329,22.329,0,0,1,24.213,46.656ZM36.477,42A4.07,4.07,0,0,1,38.6,39.769a3.118,3.118,0,0,0,3.247,0A4.07,4.07,0,0,1,43.973,42,5.592,5.592,0,0,1,36.477,42Zm3.748-3.381a1.608,1.608,0,1,1,1.608-1.608A1.608,1.608,0,0,1,40.225,38.618Zm4.867,2.007a5.584,5.584,0,0,0-2.071-2.058,3.175,3.175,0,0,0,.42-1.557,3.215,3.215,0,0,0-6.431,0,3.175,3.175,0,0,0,.42,1.557,5.584,5.584,0,0,0-2.071,2.058,5.627,5.627,0,1,1,9.734,0Z" transform="translate(-0.17 -0.17)" fill="#2a5cfd"/>
    </g>
  </g>
</svg>
