<svg xmlns="http://www.w3.org/2000/svg" width="50" height="47.172" viewBox="0 0 50 47.172">
  <g id="rocket" transform="translate(0.001 0)">
    <path id="Path_48" data-name="Path 48" d="M304.436,78.487a6.988,6.988,0,1,0,0,9.883A7,7,0,0,0,304.436,78.487Zm-8.847,8.847a5.523,5.523,0,1,1,7.811,0A5.53,5.53,0,0,1,295.589,87.334Zm0,0" transform="translate(-263.945 -68.978)" fill="#fff"/>
    <path id="Path_49" data-name="Path 49" d="M329.426,107.618a4.058,4.058,0,1,0,0,5.739A4.063,4.063,0,0,0,329.426,107.618Zm-4.7,4.7a2.593,2.593,0,1,1,3.667,0A2.6,2.6,0,0,1,324.722,112.321Zm0,0" transform="translate(-291.007 -96.038)" fill="#fff"/>
    <path id="Path_50" data-name="Path 50" d="M88.75,29.6c1.782-1.307,3.817-2.867,6.1-4.716a18.812,18.812,0,0,0,6.461-10.043,25.665,25.665,0,0,0,.568-9.3A6.073,6.073,0,0,0,96.522.185a25.659,25.659,0,0,0-9.3.568,18.809,18.809,0,0,0-10.043,6.46c-1.849,2.283-3.408,4.318-4.715,6.1a4.088,4.088,0,0,0-4.68,1.01,36.066,36.066,0,0,0-4.054,5.559c-2.6,4.319-2.147,5.575-1.578,6.143a1.552,1.552,0,0,0,1.192.439l-4.594,4.594a3.607,3.607,0,1,0,5.1,5.1l.895-.895a1.449,1.449,0,0,1,2.05,2.049l-3.7,3.7a3.607,3.607,0,1,0,5.1,5.1l2.323-2.324a.732.732,0,0,0-1.036-1.036l-2.324,2.323a2.142,2.142,0,0,1-3.03-3.03l3.7-3.7a2.914,2.914,0,0,0-4.121-4.121l-.9.895a2.142,2.142,0,1,1-3.03-3.029l6.582-6.582c.412-.2.865-.446,1.362-.732a5.38,5.38,0,0,0,1.1,1.6L70.163,27.7c-2.023,3.614-1.594,4.734-1.066,5.262s1.648.957,5.262-1.066l1.326,1.326a5.388,5.388,0,0,0,1.6,1.1c-.287.5-.529.95-.733,1.363l0,0-4.78,4.781A.732.732,0,0,0,72.8,41.514l2.8-2.8a1.553,1.553,0,0,0,.44,1.192c.568.568,1.824,1.023,6.143-1.578a36.049,36.049,0,0,0,5.559-4.054A4.12,4.12,0,0,0,88.75,29.6ZM63.2,24.985c-.1-.267.067-1.53,1.929-4.572a34.326,34.326,0,0,1,3.7-5.055,2.7,2.7,0,0,1,2.752-.815c-1.566,2.188-2.709,3.935-3.508,5.227a5.341,5.341,0,0,0-.754,3.557C64.6,24.933,63.448,25.078,63.2,24.985Zm6.942,6.942c-.1-.267.067-1.53,1.929-4.572a34.327,34.327,0,0,1,3.7-5.055,2.827,2.827,0,1,1,4,4A34.272,34.272,0,0,1,74.708,30C71.667,31.86,70.4,32.025,70.137,31.927Zm5.524-.8a35.064,35.064,0,0,0,5.138-3.8,4.125,4.125,0,0,0,.027-6.1,4.125,4.125,0,0,0-6.1.027,35.075,35.075,0,0,0-3.8,5.138l-1.06-1.06a3.879,3.879,0,0,1-.56-4.8A123.2,123.2,0,0,1,78.321,8.135,17.376,17.376,0,0,1,87.6,2.169a24.186,24.186,0,0,1,8.755-.529,4.613,4.613,0,0,1,4.07,4.07,26.2,26.2,0,0,1,.121,4.667L93.057,2.89a.732.732,0,0,0-1.036,1.036l8.324,8.324a20.49,20.49,0,0,1-.451,2.216,17.374,17.374,0,0,1-5.965,9.277A123.162,123.162,0,0,1,81.523,32.75a3.879,3.879,0,0,1-4.8-.56Zm5.989,5.809c-3.041,1.863-4.3,2.028-4.571,1.929-.093-.253.051-1.4,1.657-4.119A5.343,5.343,0,0,0,82.293,34c1.293-.8,3.04-1.943,5.229-3.51a2.688,2.688,0,0,1-.817,2.753A34.27,34.27,0,0,1,81.65,36.939Zm0,0" transform="translate(-52.065 0)" fill="#fff"/>
    <path id="Path_51" data-name="Path 51" d="M6.163,365.965a3.612,3.612,0,1,0,0,5.108A3.616,3.616,0,0,0,6.163,365.965Zm-4.072,4.072a2.147,2.147,0,1,1,3.036,0A2.149,2.149,0,0,1,2.091,370.037Zm0,0" transform="translate(0 -329.274)" fill="#fff"/>
  </g>
</svg>
