<svg id="safe" xmlns="http://www.w3.org/2000/svg" width="82.744" height="74.185" viewBox="0 0 82.744 74.185">
  <path id="Path_526" data-name="Path 526" d="M82.744,2.853V52.785H0V2.853A2.862,2.862,0,0,1,2.853,0H79.891A2.862,2.862,0,0,1,82.744,2.853Zm0,0" fill="#35495e"/>
  <path id="Path_527" data-name="Path 527" d="M82.744,149.284V174.25H0v-9.787C11.456,153.464,37.42,136.886,82.744,149.284Zm0,0" transform="translate(0 -121.465)" fill="#2c3e50"/>
  <path id="Path_528" data-name="Path 528" d="M336.876,227.824a1.427,1.427,0,0,1-1.427-1.427v-4.28a1.426,1.426,0,0,1,1.427-1.426h11.413a1.426,1.426,0,0,1,0,2.853H338.3V226.4A1.426,1.426,0,0,1,336.876,227.824Zm0,0" transform="translate(-281.237 -185.026)" fill="#e4c05c"/>
  <path id="Path_529" data-name="Path 529" d="M410.35,211.595a4.28,4.28,0,1,1,4.28-4.28A4.28,4.28,0,0,1,410.35,211.595Zm0-5.706a1.426,1.426,0,1,0,1.427,1.426A1.426,1.426,0,0,0,410.35,205.889Zm0,0" transform="translate(-340.445 -170.223)" fill="#e4c05c"/>
  <path id="Path_530" data-name="Path 530" d="M372.185,226.4a1.427,1.427,0,0,1-1.427-1.427v-2.853a1.427,1.427,0,0,1,2.853,0v2.853A1.427,1.427,0,0,1,372.185,226.4Zm0,0" transform="translate(-310.84 -185.026)" fill="#e4c05c"/>
  <path id="Path_531" data-name="Path 531" d="M82.744,326.621v4.28a2.853,2.853,0,0,1-2.853,2.853H2.853A2.853,2.853,0,0,1,0,330.9v-4.28Zm0,0" transform="translate(0 -273.836)" fill="#95a5a5"/>
  <path id="Path_532" data-name="Path 532" d="M178.334,429.58H141.242v-2.825A2.853,2.853,0,0,1,144.1,423.9h31.385a2.853,2.853,0,0,1,2.853,2.853Zm0,0" transform="translate(-118.416 -355.396)" fill="#95a5a5"/>
  <path id="Path_533" data-name="Path 533" d="M206.778,370.758H186.806l-1.427,8.56h22.826Zm0,0" transform="translate(-155.42 -310.84)" fill="#7f8c8d"/>
  <path id="Path_534" data-name="Path 534" d="M445.391,46.99H435.361l.014,2.853.014,2.824.014,2.925,2.853-.015V58.4h-2.9a2.806,2.806,0,0,1-2.81-2.81V46.947a2.806,2.806,0,0,1,2.81-2.81h10.029Zm0,0" transform="translate(-362.646 -37.004)" fill="#804169"/>
  <path id="Path_535" data-name="Path 535" d="M475,114.758v2.853h-7.133v-2.825l2.853-.014Zm0,0" transform="translate(-392.252 -96.212)" fill="#804169"/>
  <path id="Path_536" data-name="Path 536" d="M388.414,79.449v2.839h2.853l4.279-.015V79.449Zm0,0v2.839h2.853l4.279-.015V79.449Zm0,0" transform="translate(-325.643 -66.609)" fill="#cc66a1"/>
  <path id="Path_537" data-name="Path 537" d="M311.894,114.862h-2.839l.014,2.825h7.1v-2.839Zm0,0" transform="translate(-259.108 -96.287)" fill="#804169"/>
  <path id="Path_538" data-name="Path 538" d="M295.056,46.947v8.645a2.806,2.806,0,0,1-2.811,2.81h-2.91l-.015-2.839,2.882-.015v-8.6l-15.736.043.014,2.853.015,2.824.014,2.925,2.868-.015.014,2.825h-2.924a2.806,2.806,0,0,1-2.81-2.81V46.947a2.806,2.806,0,0,1,2.81-2.81h15.778a2.806,2.806,0,0,1,2.811,2.81Zm0,0" transform="translate(-229.431 -37.004)" fill="#804169"/>
  <path id="Path_539" data-name="Path 539" d="M374.5,82.26V90.9a2.806,2.806,0,0,1-2.81,2.81H355.912A2.806,2.806,0,0,1,353.1,90.9V82.26a2.806,2.806,0,0,1,2.811-2.811h2.9v2.839l-2.9.014.015,2.868.014,2.839.014,2.9,15.693-.042v-8.6l-2.868.014-.014-2.824h2.924a2.806,2.806,0,0,1,2.81,2.811Zm0,0" transform="translate(-296.037 -66.609)" fill="#cc66a1"/>
  <path id="Path_540" data-name="Path 540" d="M235.072,79.449h-2.925l.015,2.824,2.867-.014.015,2.924.014,2.825h2.825V82.26a2.806,2.806,0,0,0-2.81-2.811Zm-14.295,0,.015,2.839h2.824l5.707-.015V79.449Zm0,0" transform="translate(-185.098 -66.609)" fill="#cc66a1"/>
  <path id="Path_541" data-name="Path 541" d="M144.168,114.862h-2.84l.015,2.825h7.1v-2.839Zm0,0" transform="translate(-118.488 -96.287)" fill="#804169"/>
  <path id="Path_542" data-name="Path 542" d="M127.329,46.947v8.645a2.806,2.806,0,0,1-2.81,2.81h-2.9V55.564l2.9-.015-.014-2.867-.015-2.839-.014-2.9-15.693.043v8.6l2.867-.015.015,2.825H108.74a2.806,2.806,0,0,1-2.81-2.81V46.947a2.806,2.806,0,0,1,2.81-2.81h15.778a2.806,2.806,0,0,1,2.81,2.81Zm0,0" transform="translate(-88.81 -37.004)" fill="#804169"/>
  <g id="Group_248" data-name="Group 248" transform="translate(4.28 12.84)">
    <path id="Path_543" data-name="Path 543" d="M246.542,132.414v2.9a2.806,2.806,0,0,1-2.81,2.811H231.105a4.263,4.263,0,0,1,3.6-2.824.119.119,0,0,1,.1,0l.642-.015h5.392l2.9-.014-.015-2.853Zm0,0" transform="translate(-198.037 -123.854)" fill="#cc66a1"/>
    <path id="Path_544" data-name="Path 544" d="M196.364,90.891a4.263,4.263,0,0,0-3.6,2.824h-4.579a2.806,2.806,0,0,1-2.811-2.81V82.26a2.806,2.806,0,0,1,2.811-2.811h2.91l.015,2.839-2.882.014v8.6h2.824Zm0,0" transform="translate(-159.7 -79.449)" fill="#cc66a1"/>
    <path id="Path_545" data-name="Path 545" d="M74.751,79.449h-2.9v2.824l2.853-.014.014,2.924.015,2.825h2.825V82.26a2.806,2.806,0,0,0-2.811-2.811Zm-12.868,0,.014,2.839h2.825L69,82.274V79.449Zm0,0" transform="translate(-56.162 -79.449)" fill="#cc66a1"/>
    <path id="Path_546" data-name="Path 546" d="M47.884,88.009v2.9a2.806,2.806,0,0,1-2.81,2.81H29.295a2.806,2.806,0,0,1-2.81-2.81V82.26a2.806,2.806,0,0,1,2.81-2.811h2.91l.014,2.839-2.882.014v8.6l15.736-.042-.015-2.853Zm0,0" transform="translate(-26.484 -79.449)" fill="#cc66a1"/>
  </g>
  <path id="Path_547" data-name="Path 547" d="M0,114.758H4.28v2.853H0Zm0,0" transform="translate(0 -96.212)" fill="#804169"/>
  <path id="Path_548" data-name="Path 548" d="M12.84,46.947v8.645a2.806,2.806,0,0,1-2.81,2.81h-2.9V55.55h2.9l-.015-2.867L10,49.844l-.015-2.9L0,46.99V44.137H10.029a2.806,2.806,0,0,1,2.81,2.81Zm0,0" transform="translate(0 -37.004)" fill="#804169"/>
  <path id="Path_549" data-name="Path 549" d="M224.7,135.331h-5.392a2.171,2.171,0,0,0-.314-.014,1.2,1.2,0,0,0-.328.028.12.12,0,0,0-.1,0,4.263,4.263,0,0,0-3.6,2.824,3.975,3.975,0,0,0-.257,1.427v4.28h-2.853V139.6a6.688,6.688,0,0,1,.143-1.427,7.133,7.133,0,0,1,12.7-2.839Zm0,0" transform="translate(-177.623 -111.064)" fill="#bdc3c7"/>
  <path id="Path_550" data-name="Path 550" d="M284,169.149v4.28h-2.853v-4.28a3.976,3.976,0,0,0-.257-1.427h2.967A6.688,6.688,0,0,1,284,169.149Zm0,0" transform="translate(-235.499 -140.617)" fill="#bdc3c7"/>
  <path id="Path_551" data-name="Path 551" d="M205.889,185.379H217.3a2.853,2.853,0,0,1,2.853,2.853v9.986a2.853,2.853,0,0,1-2.853,2.853H205.889a2.853,2.853,0,0,1-2.853-2.853v-9.986A2.853,2.853,0,0,1,205.889,185.379Zm0,0" transform="translate(-170.223 -155.42)" fill="#e4c05c"/>
  <path id="Path_552" data-name="Path 552" d="M248.6,219a1.427,1.427,0,0,1-1.427-1.427v-4.28a1.427,1.427,0,1,1,2.853,0v4.28A1.427,1.427,0,0,1,248.6,219Zm0,0" transform="translate(-207.226 -177.624)" fill="#464f5d"/>
</svg>
