<svg version="1.1" id="Layer_1" xmlns="http://www.w3.org/2000/svg" xmlns:xlink="http://www.w3.org/1999/xlink" x="0px" y="0px" viewBox="0 0 512 512" style="enable-background:new 0 0 512 512;" xml:space="preserve">
<path d="M511.7,97.3c-18.9,8.3-39,14-60.2,16.6c21.7-13,38.3-33.6,46.1-58.1c-20.3,12-42.7,20.8-66.6,25.5
	C411.8,60.8,384.5,48,354.4,48c-58,0-104.9,47-104.9,105c0,8.2,0.9,16.2,2.7,23.9C165,172.6,87.6,130.8,36,67.2
	c-9,15.5-14.2,33.6-14.2,52.8c0,36.4,18.6,68.6,46.8,87.4c-17.3-0.4-33.6-5.2-47.7-13.1c0,0.4,0,0.9,0,1.3
	c0,50.9,36.2,93.3,84.2,102.9c-8.8,2.4-18.1,3.7-27.6,3.7c-6.7,0-13.3-0.6-19.7-1.9c13.3,41.7,52.1,72,98,72.9
	c-35.9,28.2-81.1,45-130.3,45c-8.5,0-16.8-0.5-25-1.5C46.7,446.7,101.8,464,161,464c193.2,0,298.7-160,298.7-298.8
	c0-4.5-0.1-9.1-0.3-13.5C479.8,136.8,497.6,118.4,511.7,97.3z"></path>
</svg>