<svg xmlns="http://www.w3.org/2000/svg" width="19.573" height="15.964" viewBox="0 0 19.573 15.964">
  <g id="twitter" transform="translate(0 -48)">
    <g id="Group_67" data-name="Group 67" transform="translate(0 48)">
      <path id="Path_24" data-name="Path 24" d="M19.573,49.89a8.341,8.341,0,0,1-2.312.636A4,4,0,0,0,19.027,48.3a8,8,0,0,1-2.545.975,4.009,4.009,0,0,0-6.941,2.754,4.163,4.163,0,0,0,.093.919,11.344,11.344,0,0,1-8.271-4.213A4.039,4.039,0,0,0,2.6,54.118a3.951,3.951,0,0,1-1.813-.5v.044A4.043,4.043,0,0,0,4,57.624a3.991,3.991,0,0,1-1.052.133,3.535,3.535,0,0,1-.76-.069,4.053,4.053,0,0,0,3.75,2.806A8.043,8.043,0,0,1,.96,62.212,7.487,7.487,0,0,1,0,62.157a11.266,11.266,0,0,0,6.156,1.808A11.366,11.366,0,0,0,17.577,52.5c0-.178-.006-.35-.015-.521A8.022,8.022,0,0,0,19.573,49.89Z" transform="translate(0 -48)" fill="#fff"/>
    </g>
  </g>
</svg>
