<svg id="twitter" xmlns="http://www.w3.org/2000/svg" width="21.743" height="17.667" viewBox="0 0 21.743 17.667">
  <g id="Group_230" data-name="Group 230" transform="translate(0 0)">
    <path id="Path_457" data-name="Path 457" d="M21.743,50.091a9.294,9.294,0,0,1-2.568.7,4.433,4.433,0,0,0,1.961-2.464,8.908,8.908,0,0,1-2.827,1.079A4.457,4.457,0,0,0,10.6,52.459a4.59,4.59,0,0,0,.1,1.016,12.617,12.617,0,0,1-9.188-4.663,4.459,4.459,0,0,0,1.37,5.958A4.4,4.4,0,0,1,.87,54.221v.049a4.478,4.478,0,0,0,3.571,4.38,4.449,4.449,0,0,1-1.169.147,3.941,3.941,0,0,1-.844-.076,4.5,4.5,0,0,0,4.165,3.105,8.957,8.957,0,0,1-5.527,1.9A8.348,8.348,0,0,1,0,63.666a12.549,12.549,0,0,0,6.838,2A12.6,12.6,0,0,0,19.525,52.982c0-.2-.007-.387-.016-.576A8.893,8.893,0,0,0,21.743,50.091Z" transform="translate(0 -48)" fill="#738496"/>
  </g>
</svg>
