<svg xmlns="http://www.w3.org/2000/svg" width="28" height="28" viewBox="0 0 28 28">
  <g id="Group_164" data-name="Group 164" transform="translate(-1215 -446)">
    <circle id="Ellipse_32" data-name="Ellipse 32" cx="14" cy="14" r="14" transform="translate(1215 446)" fill="#9ba6b2"/>
    <path id="twitter" d="M13.24,35.793a5.327,5.327,0,0,1-.928.313,2.892,2.892,0,0,0,.763-1.216h0a.152.152,0,0,0-.222-.177h0a5.352,5.352,0,0,1-1.418.586.362.362,0,0,1-.089.011.376.376,0,0,1-.248-.095,2.9,2.9,0,0,0-1.919-.724,3.1,3.1,0,0,0-.919.142,2.81,2.81,0,0,0-1.894,2.025A3.094,3.094,0,0,0,6.3,37.725a.1.1,0,0,1-.026.081.108.108,0,0,1-.08.036h-.01A7.605,7.605,0,0,1,.954,35.05h0a.152.152,0,0,0-.249.019h0A2.9,2.9,0,0,0,1.178,38.6a2.6,2.6,0,0,1-.662-.256h0a.152.152,0,0,0-.225.131h0a2.9,2.9,0,0,0,1.694,2.676H1.923a2.61,2.61,0,0,1-.489-.047h0a.152.152,0,0,0-.173.2h0a2.907,2.907,0,0,0,2.3,1.977,5.352,5.352,0,0,1-3,.91H.224a.222.222,0,0,0-.217.167.23.23,0,0,0,.11.254,7.961,7.961,0,0,0,4,1.079,8.07,8.07,0,0,0,3.418-.725,7.549,7.549,0,0,0,2.5-1.874,8.217,8.217,0,0,0,1.532-2.565,8.1,8.1,0,0,0,.521-2.807v-.044a.494.494,0,0,1,.185-.384,5.733,5.733,0,0,0,1.153-1.266h0a.152.152,0,0,0-.188-.223Z" transform="translate(1223 419.6)" fill="#fff"/>
  </g>
</svg>
