<svg xmlns="http://www.w3.org/2000/svg" width="28" height="28" viewBox="0 0 28 28">
  <g id="Group_162" data-name="Group 162" transform="translate(-1248 -17)">
    <g id="Ellipse_27" data-name="Ellipse 27" transform="translate(1248 17)" fill="#fff" stroke="#221e1e" stroke-width="1">
      <circle cx="14" cy="14" r="14" stroke="none"/>
      <circle cx="14" cy="14" r="13.5" fill="none"/>
    </g>
    <g id="user_3_" data-name="user (3)" transform="translate(1256 25)">
      <g id="Group_45" data-name="Group 45" transform="translate(0)">
        <path id="Path_10" data-name="Path 10" d="M10.243,7.757a5.977,5.977,0,0,0-2.28-1.43,3.469,3.469,0,1,0-3.925,0A6.009,6.009,0,0,0,0,12H.937a5.062,5.062,0,1,1,10.125,0H12A5.961,5.961,0,0,0,10.243,7.757ZM6,6A2.531,2.531,0,1,1,8.531,3.469,2.534,2.534,0,0,1,6,6Z" transform="translate(0)" fill="#221e1e"/>
      </g>
    </g>
  </g>
</svg>
