<svg xmlns="http://www.w3.org/2000/svg" width="60" height="59.992" viewBox="0 0 60 59.992">
  <g id="icon_3_" data-name="icon (3)" transform="translate(0 -0.002)">
    <path id="Path_17" data-name="Path 17" d="M29.1,20.177l-13.893-10.1a1.675,1.675,0,0,0-2.661,1.351V31.621a1.67,1.67,0,0,0,.915,1.494,1.687,1.687,0,0,0,.761.18,1.665,1.665,0,0,0,.984-.325L29.1,22.88a1.662,1.662,0,0,0,0-2.7Z" transform="translate(11.503 8.506)" fill="#fff"/>
    <path id="Path_18" data-name="Path 18" d="M30,0A30,30,0,1,0,60,30,30,30,0,0,0,30,0Zm0,54.987A24.99,24.99,0,1,1,54.987,30,24.986,24.986,0,0,1,30,54.989Z" transform="translate(0 0)" fill="#fff"/>
  </g>
</svg>
