<svg xmlns="http://www.w3.org/2000/svg" width="18.666" height="14" viewBox="0 0 18.666 14">
  <g id="visibility" transform="translate(0 -68.887)">
    <path id="Path_13" data-name="Path 13" d="M9.333,68.887A9.912,9.912,0,0,0,.031,75.7a.585.585,0,0,0,0,.377,9.912,9.912,0,0,0,9.3,6.811,9.912,9.912,0,0,0,9.3-6.811.585.585,0,0,0,0-.377,9.912,9.912,0,0,0-9.3-6.811Zm0,12.833A8.737,8.737,0,0,1,1.2,75.887a8.737,8.737,0,0,1,8.131-5.833,8.737,8.737,0,0,1,8.131,5.833A8.737,8.737,0,0,1,9.333,81.72Z" fill="#9ba6b2"/>
    <path id="Path_14" data-name="Path 14" d="M175.911,172.224a3.687,3.687,0,1,0,3.687,3.687A3.691,3.691,0,0,0,175.911,172.224Zm0,6.145a2.458,2.458,0,1,1,2.458-2.458A2.46,2.46,0,0,1,175.911,178.369Z" transform="translate(-166.578 -100.024)" fill="#9ba6b2"/>
  </g>
</svg>
