<svg xmlns="http://www.w3.org/2000/svg" width="28" height="28" viewBox="0 0 28 28">
  <g id="Group_165" data-name="Group 165" transform="translate(-1250 -446)">
    <circle id="Ellipse_33" data-name="Ellipse 33" cx="14" cy="14" r="14" transform="translate(1250 446)" fill="#9ba6b2"/>
    <g id="youtube-symbol" transform="translate(1256.283 440.1)">
      <path id="Path_20" data-name="Path 20" d="M15.15,16.4a1.948,1.948,0,0,0-1.667-1.515,51.8,51.8,0,0,0-5.773-.213,51.807,51.807,0,0,0-5.773.213A1.947,1.947,0,0,0,.272,16.4,16.51,16.51,0,0,0,0,20.049a16.5,16.5,0,0,0,.269,3.644,1.947,1.947,0,0,0,1.666,1.515,51.763,51.763,0,0,0,5.773.214,51.752,51.752,0,0,0,5.773-.214,1.948,1.948,0,0,0,1.666-1.515,16.5,16.5,0,0,0,.27-3.644A16.507,16.507,0,0,0,15.15,16.4ZM5.719,22.442v-5.1l4.9,2.557Z" transform="translate(0)" fill="#fff"/>
    </g>
  </g>
</svg>
