<svg id="youtube" xmlns="http://www.w3.org/2000/svg" width="21.743" height="14.948" viewBox="0 0 21.743 14.948">
  <g id="Group_231" data-name="Group 231" transform="translate(0 0)">
    <path id="Path_458" data-name="Path 458" d="M20.819,81.44c-.59-1.049-1.23-1.242-2.533-1.315S13.71,80,10.874,80s-6.117.037-7.417.124S1.515,80.39.92,81.44,0,84.293,0,87.47v.011c0,3.164.313,4.982.92,6.019s1.235,1.239,2.536,1.328,4.577.121,7.419.121,6.11-.045,7.413-.12,1.943-.279,2.533-1.328c.613-1.037.923-2.855.923-6.019v-.011C21.743,84.293,21.433,82.488,20.819,81.44ZM8.154,91.551V83.4l6.795,4.077Z" transform="translate(0 -80)" fill="#738496"/>
  </g>
</svg>
